<svg width="39" height="39" viewBox="0 0 39 39" fill="none" xmlns="http://www.w3.org/2000/svg">
<g filter="url(#filter0_i_200_420)">
<circle cx="19.5" cy="19.5" r="19.5" fill="url(#paint0_linear_200_420)"/>
<circle cx="19.5" cy="19.5" r="19.5" fill="url(#paint1_linear_200_420)" fill-opacity="0.2"/>
<circle cx="19.5" cy="19.5" r="19" stroke="#D5D5D6" stroke-opacity="0.25"/>
<path d="M18.65 23.75H20.35V18.65H18.65V23.75ZM19.5 16.95C19.7408 16.95 19.9428 16.8684 20.106 16.7052C20.2692 16.542 20.3506 16.3403 20.35 16.1C20.3494 15.8597 20.2678 15.658 20.1052 15.4948C19.9426 15.3316 19.7408 15.25 19.5 15.25C19.2592 15.25 19.0574 15.3316 18.8948 15.4948C18.7322 15.658 18.6506 15.8597 18.65 16.1C18.6494 16.3403 18.731 16.5423 18.8948 16.706C19.0586 16.8698 19.2603 16.9511 19.5 16.95ZM19.5 28C18.3242 28 17.2192 27.7767 16.185 27.3302C15.1508 26.8837 14.2512 26.2782 13.4862 25.5137C12.7213 24.7493 12.1158 23.8497 11.6698 22.815C11.2238 21.7803 11.0006 20.6753 11 19.5C10.9994 18.3247 11.2227 17.2197 11.6698 16.185C12.1169 15.1503 12.7224 14.2507 13.4862 13.4862C14.2501 12.7218 15.1497 12.1163 16.185 11.6698C17.2203 11.2233 18.3253 11 19.5 11C20.6747 11 21.7797 11.2233 22.815 11.6698C23.8503 12.1163 24.7499 12.7218 25.5137 13.4862C26.2776 14.2507 26.8834 15.1503 27.331 16.185C27.7787 17.2197 28.0017 18.3247 28 19.5C27.9983 20.6753 27.775 21.7803 27.3302 22.815C26.8854 23.8497 26.2799 24.7493 25.5137 25.5137C24.7476 26.2782 23.848 26.8839 22.815 27.331C21.782 27.7781 20.677 28.0011 19.5 28ZM19.5 26.3C21.3983 26.3 23.0062 25.6412 24.3237 24.3237C25.6412 23.0062 26.3 21.3983 26.3 19.5C26.3 17.6017 25.6412 15.9937 24.3237 14.6762C23.0062 13.3587 21.3983 12.7 19.5 12.7C17.6017 12.7 15.9937 13.3587 14.6762 14.6762C13.3587 15.9937 12.7 17.6017 12.7 19.5C12.7 21.3983 13.3587 23.0062 14.6762 24.3237C15.9937 25.6412 17.6017 26.3 19.5 26.3Z" fill="white"/>
</g>
<defs>
<filter id="filter0_i_200_420" x="0" y="0" width="39" height="43" filterUnits="userSpaceOnUse" color-interpolation-filters="sRGB">
<feFlood flood-opacity="0" result="BackgroundImageFix"/>
<feBlend mode="normal" in="SourceGraphic" in2="BackgroundImageFix" result="shape"/>
<feColorMatrix in="SourceAlpha" type="matrix" values="0 0 0 0 0 0 0 0 0 0 0 0 0 0 0 0 0 0 127 0" result="hardAlpha"/>
<feOffset dy="4"/>
<feGaussianBlur stdDeviation="5"/>
<feComposite in2="hardAlpha" operator="arithmetic" k2="-1" k3="1"/>
<feColorMatrix type="matrix" values="0 0 0 0 1 0 0 0 0 1 0 0 0 0 1 0 0 0 0.5 0"/>
<feBlend mode="normal" in2="shape" result="effect1_innerShadow_200_420"/>
</filter>
<linearGradient id="paint0_linear_200_420" x1="19.5" y1="0" x2="37.8004" y2="26.2339" gradientUnits="userSpaceOnUse">
<stop stop-color="#F6405B"/>
<stop offset="1" stop-color="#EF2B48"/>
</linearGradient>
<linearGradient id="paint1_linear_200_420" x1="19.5" y1="19.5" x2="19.5" y2="39" gradientUnits="userSpaceOnUse">
<stop stop-color="#EF2B48" stop-opacity="0"/>
<stop offset="0.817308" stop-color="white"/>
</linearGradient>
</defs>
</svg>
