<svg width="16" height="16" viewBox="0 0 16 16" fill="none" xmlns="http://www.w3.org/2000/svg">
<path d="M4.55684 13.7788H11.4504C12.6807 13.7788 13.3399 13.1386 13.3399 11.908V5.65518C13.949 5.55473 14.2755 5.09643 14.2755 4.42465V3.47054C14.2755 2.70447 13.855 2.22125 13.0825 2.22125L2.91835 2.22125C2.18389 2.22125 1.72559 2.70447 1.72559 3.47054L1.72559 4.42465C1.72559 5.09643 2.05826 5.555 2.66094 5.65518L2.66094 11.908C2.66094 13.1447 3.32657 13.7788 4.55684 13.7788ZM3.17576 4.72598C2.86184 4.72598 2.73648 4.5942 2.73648 4.28027V3.61518C2.73648 3.30125 2.86184 3.16947 3.17576 3.16947L12.8312 3.16947C13.1513 3.16947 13.2643 3.30125 13.2643 3.61518V4.28054C13.2643 4.59447 13.1513 4.72625 12.8312 4.72625L3.17576 4.72598ZM4.55068 12.8308C3.9855 12.8308 3.67184 12.5233 3.67184 11.9581L3.67184 5.6742H12.329V11.9581C12.329 12.5233 12.015 12.8308 11.4563 12.8308H4.55068ZM5.93175 8.20411H10.0817C10.3391 8.20411 10.5276 8.02197 10.5276 7.74581V7.54491C10.5276 7.26875 10.3391 7.09277 10.0817 7.09277L5.93175 7.09277C5.66818 7.09277 5.48603 7.26875 5.48603 7.54491V7.74581C5.48603 8.02197 5.66818 8.20411 5.93175 8.20411Z" fill="#333333"/>
</svg>
