<svg width="16" height="15" viewBox="0 0 16 15" fill="none" xmlns="http://www.w3.org/2000/svg">
<path d="M10.875 4.46045V2.89795C10.875 2.48355 10.7104 2.08612 10.4174 1.79309C10.1243 1.50007 9.7269 1.33545 9.3125 1.33545H3.0625C2.6481 1.33545 2.25067 1.50007 1.95765 1.79309C1.66462 2.08612 1.5 2.48355 1.5 2.89795V12.2729C1.5 12.6873 1.66462 13.0848 1.95765 13.3778C2.25067 13.6708 2.6481 13.8354 3.0625 13.8354H9C9.86289 13.8354 10.875 13.1358 10.875 12.2729V10.7104" stroke="url(#paint0_linear_1665_2132)" stroke-width="1.3" stroke-linecap="round" stroke-linejoin="round"/>
<path d="M7.125 10.7104L4 7.58545L7.125 4.46045M15.25 7.58545H4.625" stroke="url(#paint1_linear_1665_2132)" stroke-width="1.3" stroke-linecap="round" stroke-linejoin="round"/>
<defs>
<linearGradient id="paint0_linear_1665_2132" x1="10.875" y1="3.19092" x2="1.40607" y2="3.29103" gradientUnits="userSpaceOnUse">
<stop stop-color="#F6405B"/>
<stop offset="1" stop-color="#EF2B48"/>
</linearGradient>
<linearGradient id="paint1_linear_1665_2132" x1="15.25" y1="5.38818" x2="3.89333" y2="5.67634" gradientUnits="userSpaceOnUse">
<stop stop-color="#F6405B"/>
<stop offset="1" stop-color="#EF2B48"/>
</linearGradient>
</defs>
</svg>
