<svg width="16" height="15" viewBox="0 0 16 15" fill="none" xmlns="http://www.w3.org/2000/svg">
<path d="M5.23047 4.125V2.5625C5.23047 2.1481 5.39509 1.75067 5.68811 1.45765C5.98114 1.16462 6.37857 1 6.79297 1H13.043C13.4574 1 13.8548 1.16462 14.1478 1.45765C14.4408 1.75067 14.6055 2.1481 14.6055 2.5625V11.9375C14.6055 12.3519 14.4408 12.7493 14.1478 13.0424C13.8548 13.3354 13.4574 13.5 13.043 13.5H7.10547C6.24258 13.5 5.23047 12.8004 5.23047 11.9375V10.375" stroke="#EDEDED" stroke-width="1.3" stroke-linecap="round" stroke-linejoin="round"/>
<path d="M8.98047 10.375L12.1055 7.25L8.98047 4.125M0.855469 7.25H11.4805" stroke="#EDEDED" stroke-width="1.3" stroke-linecap="round" stroke-linejoin="round"/>
</svg>
