<svg width="34" height="34" viewBox="0 0 34 34" fill="none" xmlns="http://www.w3.org/2000/svg">
<rect width="34" height="34" rx="17" fill="#34C759"/>
<path d="M22.6956 19.5774L20.6925 19.3487C20.457 19.3211 20.2182 19.3472 19.9942 19.425C19.7702 19.5029 19.5668 19.6305 19.3992 19.7983L17.9481 21.2493C15.7095 20.1105 13.8899 18.2909 12.7511 16.0523L14.21 14.5933C14.5491 14.2542 14.7147 13.781 14.6595 13.3L14.4308 11.3126C14.3863 10.9278 14.2017 10.5729 13.9123 10.3155C13.6228 10.058 13.2488 9.91612 12.8615 9.91675H11.4971C10.606 9.91675 9.86469 10.6581 9.91989 11.5492C10.3379 18.2841 15.7242 23.6625 22.4511 24.0805C23.3423 24.1357 24.0836 23.3944 24.0836 22.5033V21.1389C24.0915 20.3424 23.4921 19.6721 22.6956 19.5774Z" fill="white"/>
</svg>
