<svg width="22" height="22" viewBox="0 0 22 22" fill="none" xmlns="http://www.w3.org/2000/svg">
<path d="M1 11.4C1 8.38301 1 6.875 1.946 5.937C2.89301 5 4.41601 5 7.46202 5H8.53802C11.585 5 13.108 5 14.054 5.937C15 6.874 15 8.38301 15 11.4V14.6C15 17.617 15 19.125 14.054 20.063C13.107 21 11.584 21 8.53802 21H7.46202C4.41601 21 2.89201 21 1.946 20.063C1 19.126 1 17.617 1 14.6V11.4Z" stroke="#8C8C8C" stroke-width="1.3" stroke-linecap="round" stroke-linejoin="round"/>
<path d="M15.461 15C18.072 15 19.378 15 20.189 14.18C21 13.36 21 12.04 21 9.40002V6.60001C21 3.96001 21 2.64 20.189 1.82C19.378 1 18.072 1 15.46 1H14.537C11.925 1 10.62 1 9.80901 1.82C9.09901 2.537 9.00001 3.00001 9.00001 4.50001M5 11H8.00001M5 16H10" stroke="#8C8C8C" stroke-width="1.3" stroke-linecap="round" stroke-linejoin="round"/>
</svg>
