<svg width="17" height="19" viewBox="0 0 17 19" fill="none" xmlns="http://www.w3.org/2000/svg">
<path d="M11.8333 2.66837C13.6458 2.67837 14.6275 2.7592 15.2675 3.3992C16 4.1317 16 5.31003 16 7.6667V12.6667C16 15.0242 16 16.2025 15.2675 16.935C14.5358 17.6667 13.3567 17.6667 11 17.6667H6C3.64333 17.6667 2.46417 17.6667 1.7325 16.935C1 16.2017 1 15.0242 1 12.6667V7.6667C1 5.31003 1 4.1317 1.7325 3.3992C2.3725 2.7592 3.35417 2.67837 5.16667 2.66837" stroke="#333333"/>
<path d="M7.2487 11H12.6654M4.33203 11H4.7487M4.33203 8.08331H4.7487M4.33203 13.9166H4.7487M7.2487 8.08331H12.6654M7.2487 13.9166H12.6654" stroke="#333333" stroke-linecap="round"/>
<path d="M5.16602 2.25C5.16602 1.91848 5.29771 1.60054 5.53213 1.36612C5.76655 1.1317 6.0845 1 6.41602 1H10.5827C10.9142 1 11.2321 1.1317 11.4666 1.36612C11.701 1.60054 11.8327 1.91848 11.8327 2.25V3.08333C11.8327 3.41485 11.701 3.7328 11.4666 3.96722C11.2321 4.20164 10.9142 4.33333 10.5827 4.33333H6.41602C6.0845 4.33333 5.76655 4.20164 5.53213 3.96722C5.29771 3.7328 5.16602 3.41485 5.16602 3.08333V2.25Z" stroke="#333333"/>
</svg>
