<svg width="30" height="31" viewBox="0 0 30 31" fill="none" xmlns="http://www.w3.org/2000/svg">
<circle cx="15" cy="15.5" r="15" fill="url(#paint0_linear_2122_4764)"/>
<circle cx="15" cy="15.5" r="15" fill="url(#paint1_linear_2122_4764)" fill-opacity="0.2"/>
<circle cx="15" cy="15.5" r="14.5" stroke="#D5D5D6" stroke-opacity="0.25"/>
<path d="M7.69263 15.3392C7.69263 15.1665 7.73347 15 7.81517 14.8398C7.89686 14.6792 8.01224 14.5501 8.16132 14.4528L11.1971 12.3568C11.3005 12.2855 11.4062 12.2343 11.5142 12.2034C11.6222 12.1719 11.7325 12.1562 11.8451 12.1562C11.9577 12.1562 12.0685 12.1719 12.1774 12.2034C12.2863 12.2348 12.3925 12.2859 12.4959 12.3568L15.5316 14.4528C15.6807 14.5501 15.7961 14.6792 15.8778 14.8398C15.9595 15 16.0003 15.1665 16.0003 15.3392V19.4127C16.0003 19.7115 15.8907 19.9673 15.6715 20.18C15.4522 20.3927 15.1892 20.4992 14.8822 20.4997H14.2432C13.9354 20.4997 13.6721 20.3931 13.4533 20.18C13.2345 19.9668 13.1249 19.7111 13.1245 19.4127V17.7037C13.1245 17.5314 13.0624 17.3847 12.9382 17.2635C12.8141 17.1424 12.6632 17.082 12.4855 17.0825H11.2075C11.0298 17.0825 10.8789 17.1431 10.7547 17.2642C10.6305 17.3854 10.5682 17.5319 10.5678 17.7037V19.4127C10.5678 19.7115 10.4584 19.9673 10.2396 20.18C10.0209 20.3927 9.75801 20.4992 9.45109 20.4997H8.81209C8.50424 20.4997 8.2407 20.3931 8.02147 20.18C7.80224 19.9668 7.69263 19.7113 7.69263 19.4134V15.3392ZM21.5388 10.8182V19.4127C21.5388 19.7115 21.4292 19.9673 21.2099 20.18C20.9907 20.3927 20.7276 20.4992 20.4207 20.4997H17.9173C17.7742 20.4997 17.6496 20.4481 17.5435 20.3449C17.4373 20.2417 17.3845 20.1205 17.3849 19.9814V14.6661C17.3849 14.4934 17.3448 14.3269 17.2645 14.1667C17.1842 14.0061 17.0699 13.8764 16.9218 13.7777L14.0217 11.7605C13.8717 11.6568 13.7529 11.5415 13.6652 11.4145C13.5775 11.2875 13.5336 11.1327 13.5336 10.9501V10.7172C13.5336 10.4368 13.6326 10.2021 13.8306 10.0132C14.0282 9.8247 14.2737 9.73047 14.5672 9.73047H20.42C20.7274 9.73047 20.9905 9.83704 21.2092 10.0502C21.428 10.2633 21.5379 10.5191 21.5388 10.8175M18.5162 12.941H19.0222C19.097 12.941 19.1623 12.9139 19.2182 12.8596C19.274 12.8053 19.3019 12.7418 19.3019 12.6691V12.1778C19.3019 12.1051 19.274 12.0416 19.2182 11.9873C19.1623 11.933 19.097 11.9059 19.0222 11.9059H18.5169C18.4421 11.9059 18.3768 11.933 18.3209 11.9873C18.2651 12.0416 18.2372 12.1049 18.2372 12.1771V12.6691C18.2372 12.7418 18.2651 12.8053 18.3209 12.8596C18.3768 12.9139 18.4414 12.941 18.5162 12.941ZM18.5169 15.6334H19.0222C19.097 15.6334 19.1623 15.6062 19.2182 15.5519C19.274 15.4976 19.3019 15.4341 19.3019 15.3614V14.8701C19.3019 14.7974 19.274 14.7339 19.2182 14.6796C19.1623 14.6253 19.097 14.5982 19.0222 14.5982H18.5169C18.4421 14.5982 18.3768 14.6253 18.3209 14.6796C18.2651 14.7339 18.2372 14.7972 18.2372 14.8694V15.3614C18.2372 15.4341 18.2651 15.4976 18.3209 15.5519C18.3768 15.6062 18.4421 15.6334 18.5169 15.6334ZM18.5169 18.3257H19.0222C19.097 18.3257 19.1623 18.2985 19.2182 18.2442C19.274 18.1899 19.3019 18.1264 19.3019 18.0537V17.5624C19.3019 17.4897 19.274 17.4262 19.2182 17.3719C19.1623 17.3176 19.097 17.2905 19.0222 17.2905H18.5169C18.4421 17.2905 18.3768 17.3176 18.3209 17.3719C18.2651 17.4262 18.2372 17.4897 18.2372 17.5624V18.0537C18.2372 18.1264 18.2651 18.1899 18.3209 18.2442C18.3768 18.2985 18.4421 18.3257 18.5169 18.3257Z" fill="white"/>
<defs>
<linearGradient id="paint0_linear_2122_4764" x1="15" y1="0.5" x2="29.0772" y2="20.6799" gradientUnits="userSpaceOnUse">
<stop stop-color="#F6405B"/>
<stop offset="1" stop-color="#EF2B48"/>
</linearGradient>
<linearGradient id="paint1_linear_2122_4764" x1="15" y1="15.5" x2="15" y2="30.5" gradientUnits="userSpaceOnUse">
<stop stop-color="#EF2B48" stop-opacity="0"/>
<stop offset="0.817308" stop-color="white"/>
</linearGradient>
</defs>
</svg>
