<svg width="20" height="20" viewBox="0 0 20 20" fill="none" xmlns="http://www.w3.org/2000/svg">
<path d="M5.29688 1.49996C5.29687 1.10215 5.46369 0.720628 5.76062 0.43933C6.05756 0.158032 6.46028 0 6.88021 0H12.158C12.5779 0 12.9806 0.158032 13.2776 0.43933C13.5745 0.720628 13.7413 1.10215 13.7413 1.49996V2.49994C13.7413 2.89776 13.5745 3.27928 13.2776 3.56058C12.9806 3.84187 12.5779 3.99991 12.158 3.99991H6.88021C6.46028 3.99991 6.05756 3.84187 5.76062 3.56058C5.46369 3.27928 5.29688 2.89776 5.29688 2.49994V1.49996Z" fill="url(#paint0_linear_3113_1787)"/>
<path d="M14.5547 2.01172C16.3417 2.04883 17.3825 2.20694 18.0918 2.87891C19.0196 3.75789 19.0195 5.17211 19.0195 8V14C19.0195 16.8284 19.0193 18.2421 18.0918 19.1211C17.1651 19.999 15.6714 20 12.6865 20H6.35254C3.36764 20 1.87401 19.999 0.947266 19.1211C0.0197462 18.2411 0.0195313 16.8284 0.0195312 14V8C0.0195312 5.17211 0.0194712 3.75789 0.947266 2.87891C1.65865 2.20498 2.70337 2.04725 4.5 2.01074V2.5C4.5 3.88071 5.61929 5 7 5H12C13.3807 5 14.5 3.88071 14.5 2.5V2.01074L14.5547 2.01172ZM4.23926 14.8496C3.88027 14.8496 3.58887 15.141 3.58887 15.5C3.58896 15.8589 3.88033 16.1494 4.23926 16.1494H4.7666C5.12553 16.1494 5.4169 15.8589 5.41699 15.5C5.41699 15.141 5.12559 14.8496 4.7666 14.8496H4.23926ZM7.93359 14.8496C7.57466 14.8497 7.28418 15.1411 7.28418 15.5C7.28427 15.8589 7.57471 16.1494 7.93359 16.1494H14.7949C15.1538 16.1494 15.4442 15.8589 15.4443 15.5C15.4443 15.1411 15.1539 14.8497 14.7949 14.8496H7.93359ZM4.23926 11.3496C3.88027 11.3496 3.58887 11.641 3.58887 12C3.58891 12.3589 3.8803 12.6504 4.23926 12.6504H4.7666C5.12556 12.6504 5.41695 12.3589 5.41699 12C5.41699 11.641 5.12559 11.3496 4.7666 11.3496H4.23926ZM7.93359 11.3496C7.57466 11.3497 7.28418 11.6411 7.28418 12C7.28422 12.3589 7.57469 12.6503 7.93359 12.6504H14.7949C15.1538 12.6503 15.4443 12.3589 15.4443 12C15.4443 11.6411 15.1539 11.3497 14.7949 11.3496H7.93359ZM4.23926 7.84961C3.88027 7.84961 3.58887 8.14102 3.58887 8.5C3.58887 8.85898 3.88027 9.15039 4.23926 9.15039H4.7666C5.12559 9.15039 5.41699 8.85898 5.41699 8.5C5.41699 8.14102 5.12559 7.84961 4.7666 7.84961H4.23926ZM7.93359 7.84961C7.57466 7.84967 7.28418 8.14105 7.28418 8.5C7.28418 8.85895 7.57466 9.15033 7.93359 9.15039H14.7949C15.1539 9.15033 15.4443 8.85895 15.4443 8.5C15.4443 8.14105 15.1539 7.84967 14.7949 7.84961H7.93359ZM13.5 2.00977V2.5C13.5 3.32843 12.8284 4 12 4H7C6.17157 4 5.5 3.32843 5.5 2.5V2.00195L13.5 2.00977Z" fill="url(#paint1_linear_3113_1787)"/>
<defs>
<linearGradient id="paint0_linear_3113_1787" x1="5.29687" y1="0.593736" x2="13.8193" y2="0.847361" gradientUnits="userSpaceOnUse">
<stop stop-color="#F6405B"/>
<stop offset="1" stop-color="#EF2B48"/>
</linearGradient>
<linearGradient id="paint1_linear_3113_1787" x1="0.0195312" y1="4.67354" x2="19.2078" y2="4.95908" gradientUnits="userSpaceOnUse">
<stop stop-color="#F6405B"/>
<stop offset="1" stop-color="#EF2B48"/>
</linearGradient>
</defs>
</svg>
