<svg width="13" height="13" viewBox="0 0 13 13" fill="none" xmlns="http://www.w3.org/2000/svg">
<path d="M7.37505 11.3579C7.37505 11.3579 7.95839 11.3579 8.54172 12.5246C8.54172 12.5246 10.395 9.60791 12.0417 9.02458M3.58339 9.02458H5.91672M3.58339 6.10791H8.25005M3.29172 1.73291C2.38405 1.76033 1.8433 1.86124 1.4688 2.23574C0.956055 2.74908 0.956055 3.57449 0.956055 5.22591V9.02108C0.956055 10.6731 0.956055 11.4985 1.4688 12.0118C1.98097 12.5246 2.80639 12.5246 4.45605 12.5246H5.91439M8.53705 1.73291C9.44472 1.76033 9.98605 1.86124 10.36 2.23574C10.8733 2.74908 10.8733 3.57449 10.8733 5.22591V7.56624" stroke="#53DAA0" stroke-width="0.75" stroke-linecap="round" stroke-linejoin="round"/>
<path d="M3.28906 1.87874C3.28906 1.31524 3.7464 0.85791 4.3099 0.85791H7.51823C7.78897 0.85791 8.04862 0.965462 8.24007 1.15691C8.43151 1.34835 8.53906 1.608 8.53906 1.87874C8.53906 2.14949 8.43151 2.40914 8.24007 2.60058C8.04862 2.79202 7.78897 2.89958 7.51823 2.89958H4.3099C4.03915 2.89958 3.7795 2.79202 3.58806 2.60058C3.39661 2.40914 3.28906 2.14949 3.28906 1.87874Z" stroke="#53DAA0" stroke-width="0.75" stroke-linecap="round" stroke-linejoin="round"/>
</svg>
