<svg width="16" height="17" viewBox="0 0 16 17" fill="none" xmlns="http://www.w3.org/2000/svg">
<path fill-rule="evenodd" clip-rule="evenodd" d="M6.65372 0.879101C6.38581 0.715377 6.04348 0.804681 5.8872 1.06515C5.45557 1.78702 5.24719 3.38704 6.89931 4.76381C7.13745 4.9573 7.48723 4.92753 7.68816 4.68939C7.78156 4.57436 7.82609 4.42727 7.81217 4.27975C7.79825 4.13224 7.727 3.99607 7.61374 3.90054C6.40814 2.89587 6.68349 1.91353 6.84722 1.64562C6.92147 1.5179 6.94279 1.36619 6.90663 1.22294C6.87047 1.0797 6.7797 0.956284 6.65372 0.879101ZM2.39692 3.9824C2.1811 3.76658 2.1811 3.40937 2.39692 3.19355C2.50205 3.08993 2.64373 3.03184 2.79134 3.03184C2.93896 3.03184 3.08064 3.08993 3.18577 3.19355L5.41836 5.42614C5.63418 5.64196 5.63418 5.99917 5.41836 6.21499C5.20254 6.43081 4.84533 6.43081 4.62951 6.21499L2.39692 3.9824ZM7.33094 6.69128L5.89464 8.12758C5.20254 8.82712 4.62951 9.39271 4.26485 9.88388C3.88531 10.3974 3.63229 10.9406 3.75136 11.5658C3.86299 12.1909 4.29462 12.6076 4.83044 12.95C5.35882 13.2849 6.08814 13.6123 6.98861 14.0067L9.54121 15.1453C11.0519 15.8151 12.2501 16.3435 13.158 16.604C14.0436 16.8644 14.9143 16.9389 15.5245 16.3212C16.1422 15.7109 16.0678 14.8402 15.8073 13.9546C15.5469 13.0467 15.0185 11.8486 14.3487 10.3378L13.2324 7.8299L13.2101 7.78524C12.8157 6.88477 12.4882 6.15545 12.1533 5.62707C11.811 5.09125 11.3943 4.65962 10.7691 4.54799C10.144 4.42892 9.60074 4.68195 9.08725 5.06149C8.59608 5.42614 8.03049 5.99917 7.33094 6.69128ZM9.75702 5.95452C10.1663 5.6494 10.3896 5.61219 10.5682 5.64196C10.7468 5.67917 10.9403 5.7908 11.2157 6.22987C11.3794 6.49034 11.5505 6.82523 11.744 7.24942C11.7291 7.25687 11.7143 7.27175 11.6994 7.28663L6.49 12.496C6.49 12.496 6.46023 12.5258 6.45279 12.5407C6.0286 12.3472 5.69371 12.176 5.43324 12.0123C4.99417 11.7369 4.88254 11.5434 4.84533 11.3648C4.81556 11.1862 4.85277 10.963 5.15789 10.5537C5.47045 10.1295 5.98395 9.62341 6.7207 8.88666L8.09002 7.51733C8.82678 6.78058 9.33283 6.26708 9.75702 5.95452ZM13.3068 10.7471L12.2352 8.32851L7.53188 13.0318L9.95052 14.1035L10.0919 14.163C10.1165 14.0947 10.1574 14.0334 10.211 13.9844L13.1878 11.0076C13.2367 10.954 13.298 10.9131 13.3664 10.8885L13.3068 10.7471ZM13.8352 11.9379L11.1412 14.6319C12.1087 15.056 12.8678 15.3612 13.4631 15.5323C14.319 15.7779 14.6017 15.6737 14.7357 15.5323C14.8771 15.3984 14.9813 15.1156 14.7357 14.2598C14.5645 13.6644 14.2594 12.9053 13.8352 11.9379ZM0.268519 6.68383C0.99039 6.2522 2.59041 6.04383 3.96718 7.69594C4.16067 7.93408 4.1309 8.28386 3.89276 8.48479C3.65461 8.67828 3.30484 8.64851 3.10391 8.41037C2.09924 7.20477 1.1169 7.48012 0.848993 7.64385C0.581082 7.80013 0.238751 7.71082 0.0824699 7.45036C-0.0812531 7.18245 0.00804996 6.84011 0.268519 6.68383ZM3.53554 0.797239C3.23042 0.797239 2.97739 1.05027 2.97739 1.35539V1.37027C2.97739 1.67539 3.23042 1.92842 3.53554 1.92842C3.84066 1.92842 4.09369 1.67539 4.09369 1.37027V1.35539C4.09369 1.05027 3.84066 0.797239 3.53554 0.797239ZM0.000607491 4.33217C0.000607491 4.02705 0.253634 3.77403 0.558755 3.77403C0.863876 3.77403 1.1169 4.02705 1.1169 4.33217V4.34706C1.1169 4.65218 0.863876 4.9052 0.558755 4.9052C0.253634 4.9052 0.000607491 4.65218 0.000607491 4.34706V4.33217ZM1.30295 8.9834C0.997831 8.9834 0.744804 9.23643 0.744804 9.54155V9.55643C0.744804 9.86155 0.997831 10.1146 1.30295 10.1146C1.60807 10.1146 1.8611 9.86155 1.8611 9.55643V9.54155C1.8611 9.23643 1.60807 8.9834 1.30295 8.9834ZM8.18677 2.09958C8.18677 1.79446 8.4398 1.54144 8.74492 1.54144C9.05004 1.54144 9.30307 1.79446 9.30307 2.09958V2.11447C9.30307 2.41959 9.05004 2.67261 8.74492 2.67261C8.4398 2.67261 8.18677 2.41959 8.18677 2.11447V2.09958Z" fill="#FFAD49"/>
</svg>
