<svg width="16" height="17" viewBox="0 0 16 17" fill="none" xmlns="http://www.w3.org/2000/svg">
<path fill-rule="evenodd" clip-rule="evenodd" d="M9.34628 0.879101C9.61419 0.715377 9.95652 0.804681 10.1128 1.06515C10.5444 1.78702 10.7528 3.38704 9.10069 4.76381C8.86255 4.9573 8.51277 4.92753 8.31184 4.68939C8.21844 4.57436 8.17391 4.42727 8.18783 4.27975C8.20175 4.13224 8.273 3.99607 8.38626 3.90054C9.59186 2.89587 9.31651 1.91353 9.15278 1.64562C9.07853 1.5179 9.05721 1.36619 9.09337 1.22294C9.12953 1.0797 9.2203 0.956284 9.34628 0.879101ZM13.6031 3.9824C13.8189 3.76658 13.8189 3.40937 13.6031 3.19355C13.4979 3.08993 13.3563 3.03184 13.2087 3.03184C13.061 3.03184 12.9194 3.08993 12.8142 3.19355L10.5816 5.42614C10.3658 5.64196 10.3658 5.99917 10.5816 6.21499C10.7975 6.43081 11.1547 6.43081 11.3705 6.21499L13.6031 3.9824ZM8.66906 6.69128L10.1054 8.12758C10.7975 8.82712 11.3705 9.39271 11.7351 9.88388C12.1147 10.3974 12.3677 10.9406 12.2486 11.5658C12.137 12.1909 11.7054 12.6076 11.1696 12.95C10.6412 13.2849 9.91186 13.6123 9.01139 14.0067L6.45879 15.1453C4.94807 15.8151 3.74992 16.3435 2.842 16.604C1.9564 16.8644 1.08569 16.9389 0.475451 16.3212C-0.142232 15.7109 -0.0678123 14.8402 0.192657 13.9546C0.453125 13.0467 0.981505 11.8486 1.65128 10.3378L2.76758 7.8299L2.7899 7.78524C3.18433 6.88477 3.51177 6.15545 3.84666 5.62707C4.18899 5.09125 4.60574 4.65962 5.23087 4.54799C5.85599 4.42892 6.39926 4.68195 6.91275 5.06149C7.40392 5.42614 7.96951 5.99917 8.66906 6.69128ZM6.24298 5.95452C5.83367 5.6494 5.61041 5.61219 5.4318 5.64196C5.25319 5.67917 5.0597 5.7908 4.78435 6.22987C4.62063 6.49034 4.44946 6.82523 4.25597 7.24942C4.27085 7.25687 4.28574 7.27175 4.30062 7.28663L9.51 12.496C9.51 12.496 9.53977 12.5258 9.54721 12.5407C9.9714 12.3472 10.3063 12.176 10.5668 12.0123C11.0058 11.7369 11.1175 11.5434 11.1547 11.3648C11.1844 11.1862 11.1472 10.963 10.8421 10.5537C10.5295 10.1295 10.0161 9.62341 9.2793 8.88666L7.90998 7.51733C7.17322 6.78058 6.66717 6.26708 6.24298 5.95452ZM2.69316 10.7471L3.7648 8.32851L8.46812 13.0318L6.04948 14.1035L5.90809 14.163C5.88351 14.0947 5.84264 14.0334 5.78901 13.9844L2.81223 11.0076C2.76326 10.954 2.70195 10.9131 2.63362 10.8885L2.69316 10.7471ZM2.16478 11.9379L4.85877 14.6319C3.89131 15.056 3.13223 15.3612 2.53688 15.5323C1.68105 15.7779 1.39825 15.6737 1.2643 15.5323C1.1229 15.3984 1.01871 15.1156 1.2643 14.2598C1.43546 13.6644 1.74059 12.9053 2.16478 11.9379ZM15.7315 6.68383C15.0096 6.2522 13.4096 6.04383 12.0328 7.69594C11.8393 7.93408 11.8691 8.28386 12.1072 8.48479C12.3454 8.67828 12.6952 8.64851 12.8961 8.41037C13.9008 7.20477 14.8831 7.48012 15.151 7.64385C15.4189 7.80013 15.7612 7.71082 15.9175 7.45036C16.0813 7.18245 15.992 6.84011 15.7315 6.68383ZM12.4645 0.797239C12.7696 0.797239 13.0226 1.05027 13.0226 1.35539V1.37027C13.0226 1.67539 12.7696 1.92842 12.4645 1.92842C12.1593 1.92842 11.9063 1.67539 11.9063 1.37027V1.35539C11.9063 1.05027 12.1593 0.797239 12.4645 0.797239ZM15.9994 4.33217C15.9994 4.02705 15.7464 3.77403 15.4412 3.77403C15.1361 3.77403 14.8831 4.02705 14.8831 4.33217V4.34706C14.8831 4.65218 15.1361 4.9052 15.4412 4.9052C15.7464 4.9052 15.9994 4.65218 15.9994 4.34706V4.33217ZM14.697 8.9834C15.0022 8.9834 15.2552 9.23643 15.2552 9.54155V9.55643C15.2552 9.86155 15.0022 10.1146 14.697 10.1146C14.3919 10.1146 14.1389 9.86155 14.1389 9.55643V9.54155C14.1389 9.23643 14.3919 8.9834 14.697 8.9834ZM7.81323 2.09958C7.81323 1.79446 7.5602 1.54144 7.25508 1.54144C6.94996 1.54144 6.69693 1.79446 6.69693 2.09958V2.11447C6.69693 2.41959 6.94996 2.67261 7.25508 2.67261C7.5602 2.67261 7.81323 2.41959 7.81323 2.11447V2.09958Z" fill="#FFAD49"/>
</svg>
