<svg width="13" height="13" viewBox="0 0 13 13" fill="none" xmlns="http://www.w3.org/2000/svg">
<path d="M7.04297 1.5459V2.90007C7.04297 4.17677 7.04297 4.8154 7.43947 5.2119C7.83597 5.6084 8.47459 5.6084 9.7513 5.6084H11.918" stroke="#8C8C8C"/>
<path d="M4.60482 10.2122V7.50391M4.60482 7.50391L3.52148 8.51953M4.60482 7.50391L5.68815 8.51953" stroke="#8C8C8C" stroke-linecap="round" stroke-linejoin="round"/>
<path d="M1.49024 5.60827C1.49024 5.50052 1.44743 5.39719 1.37125 5.321C1.29506 5.24482 1.19173 5.20202 1.08399 5.20202C0.976241 5.20202 0.87291 5.24482 0.796723 5.321C0.720536 5.39719 0.677735 5.50052 0.677735 5.60827H1.49024ZM11.5111 7.77493C11.5111 7.88268 11.5539 7.98601 11.6301 8.06219C11.7062 8.13838 11.8096 8.18118 11.9173 8.18118C12.0251 8.18118 12.1284 8.13838 12.2046 8.06219C12.2808 7.98601 12.3236 7.88268 12.3236 7.77493H11.5111ZM0.73461 3.40206C0.724123 3.5093 0.756667 3.61631 0.825082 3.69956C0.893498 3.78281 0.992181 3.83547 1.09942 3.84595C1.20666 3.85644 1.31368 3.8239 1.39693 3.75548C1.48017 3.68707 1.53283 3.58838 1.54332 3.48114L0.73461 3.40206ZM12.2667 9.98114C12.2719 9.92804 12.2666 9.87444 12.251 9.82339C12.2355 9.77235 12.2101 9.72486 12.1762 9.68364C12.1423 9.64242 12.1007 9.60827 12.0536 9.58316C12.0065 9.55804 11.955 9.54244 11.9019 9.53724C11.8488 9.53205 11.7952 9.53737 11.7441 9.55289C11.6931 9.56842 11.6456 9.59384 11.6044 9.62772C11.5211 9.69613 11.4685 9.79482 11.458 9.90206L12.2667 9.98114ZM7.58399 11.702H5.41732V12.5145H7.58399V11.702ZM1.49024 7.77493V5.60827H0.677735V7.77493H1.49024ZM11.5111 7.53822V7.77493H12.3236V7.53822H11.5111ZM8.06661 2.68922L10.2111 4.61918L10.7544 4.01468L8.61044 2.08472L8.06661 2.68922ZM12.3236 7.53822C12.3236 6.62335 12.3317 6.04377 12.1015 5.52593L11.3589 5.85689C11.5029 6.18081 11.5111 6.55185 11.5111 7.53822H12.3236ZM10.2111 4.61918C10.9439 5.27893 11.2148 5.53351 11.3589 5.85689L12.1015 5.52593C11.8707 5.00756 11.4347 4.62677 10.7544 4.01468L10.2111 4.61918ZM5.43357 1.68118C6.29048 1.68118 6.61386 1.68768 6.90148 1.79818L7.1929 1.03985C6.7314 0.862183 6.22873 0.868683 5.43357 0.868683V1.68118ZM8.61044 2.08527C8.02219 1.55606 7.6544 1.21643 7.1929 1.03985L6.90203 1.79818C7.19019 1.90868 7.43286 2.11885 8.06661 2.68922L8.61044 2.08527ZM5.41732 11.702C4.38436 11.702 3.65094 11.7009 3.09357 11.6262C2.54919 11.5531 2.23503 11.4155 2.0059 11.1863L1.43174 11.7605C1.8369 12.1668 2.35094 12.3461 2.98578 12.4316C3.60869 12.5156 4.40765 12.5145 5.41732 12.5145V11.702ZM0.677735 7.77493C0.677735 8.7846 0.676652 9.58302 0.76061 10.2065C0.846193 10.8413 1.02603 11.3553 1.43119 11.7611L2.00536 11.1869C1.77678 10.9572 1.63919 10.6431 1.56607 10.0981C1.49132 9.54185 1.49024 8.80789 1.49024 7.77493H0.677735ZM7.58399 12.5145C8.59365 12.5145 9.39207 12.5156 10.0155 12.4316C10.6504 12.3461 11.1644 12.1662 11.5701 11.7611L10.9959 11.1869C10.7663 11.4155 10.4521 11.5531 9.90719 11.6262C9.3509 11.7009 8.61694 11.702 7.58399 11.702V12.5145ZM5.43357 0.868683C4.41794 0.868683 3.61574 0.867599 2.99011 0.951558C2.35257 1.03714 1.8369 1.21697 1.43119 1.62214L2.00536 2.19631C2.23503 1.96772 2.54974 1.83014 3.0979 1.75702C3.65744 1.68227 4.39519 1.68118 5.43357 1.68118V0.868683ZM1.54332 3.48114C1.60886 2.81272 1.75023 2.45197 2.0059 2.19685L1.43174 1.62268C0.978902 2.07443 0.807193 2.66214 0.73461 3.40206L1.54332 3.48114ZM11.458 9.90206C11.3924 10.5705 11.2505 10.9312 10.9954 11.1863L11.5696 11.7605C12.0224 11.3088 12.1941 10.7211 12.2667 9.98114L11.458 9.90206Z" fill="#8C8C8C"/>
</svg>
