<svg width="11" height="11" viewBox="0 0 11 11" fill="none" xmlns="http://www.w3.org/2000/svg">
<g clip-path="url(#clip0_374_671)">
<path d="M5.70579 10.4436H5.69662C5.03204 10.4253 4.39037 10.274 3.78996 9.99901C3.74897 9.98042 3.71207 9.95392 3.68135 9.92103C3.65063 9.88814 3.62671 9.84951 3.61095 9.80735C3.5952 9.76519 3.58792 9.72034 3.58954 9.67537C3.59115 9.63039 3.60163 9.58618 3.62037 9.54527C3.69829 9.3711 3.90454 9.29776 4.07412 9.37568C4.59204 9.61401 5.14204 9.73776 5.71496 9.7561C5.90287 9.76068 6.05412 9.9211 6.04954 10.109C6.04496 10.2969 5.89371 10.4436 5.70579 10.4436ZM7.50246 10.1319C7.36496 10.1319 7.23662 10.0494 7.18162 9.91193C7.11287 9.73318 7.19996 9.5361 7.37871 9.46735C7.91037 9.2611 8.38704 8.95401 8.79496 8.55526C8.93246 8.42235 9.14787 8.42693 9.28079 8.56443C9.41371 8.70193 9.40912 8.91735 9.27162 9.05027C8.79984 9.51012 8.24023 9.8702 7.62621 10.109C7.58496 10.1273 7.54371 10.1319 7.50246 10.1319ZM2.46079 8.9586C2.36912 8.9586 2.27746 8.92193 2.20871 8.8486C1.75954 8.35818 1.42037 7.79443 1.19579 7.1711C1.17894 7.12834 1.17084 7.08263 1.17196 7.03669C1.17308 6.99074 1.18341 6.94548 1.20232 6.9036C1.22124 6.86171 1.24836 6.82404 1.28209 6.79282C1.31582 6.7616 1.35547 6.73746 1.39869 6.72183C1.44191 6.70619 1.48782 6.69939 1.53372 6.70181C1.57961 6.70423 1.62456 6.71583 1.66589 6.73592C1.70723 6.75602 1.74412 6.7842 1.77437 6.81879C1.80463 6.85339 1.82764 6.8937 1.84204 6.93735C2.03329 7.47178 2.32936 7.96263 2.71287 8.3811C2.84121 8.5186 2.83204 8.7386 2.68996 8.86693C2.62579 8.92652 2.53871 8.9586 2.45621 8.9586H2.46079ZM10.06 7.64318C10.0034 7.64306 9.94768 7.62896 9.89785 7.60215C9.84801 7.57533 9.80556 7.53663 9.77428 7.48947C9.74299 7.44232 9.72383 7.38817 9.7185 7.33183C9.71317 7.27549 9.72182 7.2187 9.74371 7.16651C9.96371 6.64401 10.0783 6.08943 10.0783 5.51651C10.0783 5.3286 10.2341 5.17276 10.422 5.17276C10.61 5.17276 10.7658 5.3286 10.7658 5.51651C10.7658 6.1811 10.6375 6.82735 10.3762 7.43693C10.3212 7.56985 10.1929 7.64777 10.06 7.64777V7.64318ZM1.26454 5.59901H1.24621C1.15525 5.59357 1.0701 5.55252 1.0092 5.48475C0.94829 5.41698 0.916529 5.32795 0.92079 5.23693C0.957456 4.57235 1.12704 3.93526 1.42037 3.34401C1.50287 3.17443 1.70912 3.10568 1.87871 3.18818C2.04829 3.27068 2.11704 3.47693 2.03454 3.64651C1.78344 4.1543 1.6384 4.70792 1.60829 5.2736C1.59912 5.45693 1.44787 5.59901 1.26454 5.59901ZM10.2387 4.57235C10.092 4.57235 9.95454 4.4761 9.90871 4.32485C9.74769 3.7808 9.47967 3.27438 9.12037 2.83526C9.06338 2.76385 9.03673 2.67291 9.04616 2.58203C9.05559 2.49115 9.10035 2.40762 9.17079 2.34943C9.2422 2.29244 9.33315 2.26579 9.42402 2.27522C9.5149 2.28465 9.59844 2.32941 9.65662 2.39985C10.0783 2.91318 10.3854 3.49526 10.5687 4.13235C10.5841 4.18359 10.5872 4.23773 10.5778 4.2904C10.5684 4.34306 10.5468 4.39279 10.5147 4.43559C10.4826 4.47839 10.4409 4.51305 10.393 4.53681C10.345 4.56056 10.2922 4.57273 10.2387 4.57235ZM2.84121 2.39526C2.74496 2.39526 2.64871 2.35401 2.57996 2.2761C2.55037 2.24183 2.52784 2.20206 2.51367 2.15907C2.49949 2.11608 2.49395 2.07071 2.49735 2.02556C2.50076 1.98042 2.51305 1.9364 2.53352 1.89602C2.55399 1.85564 2.58223 1.8197 2.61662 1.79026C3.11621 1.35485 3.69371 1.02943 4.32162 0.827764C4.50037 0.768181 4.69746 0.869014 4.75246 1.04776C4.81204 1.22651 4.71121 1.4236 4.53246 1.48318C3.99162 1.65735 3.49662 1.93693 3.06579 2.31276C3.00162 2.36776 2.91912 2.39526 2.84121 2.39526ZM7.97912 1.8086C7.92304 1.80851 7.86788 1.79433 7.81871 1.76735C7.31454 1.50151 6.77371 1.3411 6.20537 1.29068C6.11492 1.28253 6.03136 1.2389 5.97297 1.16934C5.91457 1.09978 5.88607 1.00993 5.89371 0.919431C5.91204 0.731514 6.07704 0.589431 6.26496 0.607764C6.92496 0.662764 7.55746 0.850681 8.14412 1.15776C8.31371 1.24485 8.37329 1.45568 8.28621 1.62068C8.22662 1.73526 8.10746 1.80401 7.98371 1.80401L7.97912 1.8086Z" fill="#D2D2D2"/>
</g>
<defs>
<clipPath id="clip0_374_671">
<rect width="11" height="11" fill="white"/>
</clipPath>
</defs>
</svg>
