<svg width="24" height="24" viewBox="0 0 24 24" fill="none" xmlns="http://www.w3.org/2000/svg">
<path d="M19.0011 18.2041H19.5011V18.2041L19.0011 18.2041ZM13.7736 19L13.7733 19.5H13.7736V19ZM12.9885 18.2041L12.4885 18.2041V18.2041H12.9885ZM13.7736 17.4082V16.9082H13.7733L13.7736 17.4082ZM12.1886 5.74418L11.7942 5.43694L11.7926 5.43899L12.1886 5.74418ZM15.1359 5.54398L14.8247 5.93531L14.825 5.93555L15.1359 5.54398ZM16.2834 6.45512L15.9724 6.8467L15.9753 6.84895L16.2834 6.45512ZM17.174 7.8184L16.6847 7.92134L16.6857 7.92608L17.174 7.8184ZM16.7951 9.40629L16.4006 9.09903L16.3996 9.10043L16.7951 9.40629ZM9.96013 18.2452L10.3541 18.5531L10.3557 18.551L9.96013 18.2452ZM8.68865 18.8809L8.69474 19.3809L8.69709 19.3808L8.68865 18.8809ZM5.96502 18.9141L5.96483 19.4141L5.97111 19.4141L5.96502 18.9141ZM5.65935 18.6719L5.17214 18.7843L5.1724 18.7854L5.65935 18.6719ZM5.04021 15.9873L4.55158 16.0936L4.553 16.0997L5.04021 15.9873ZM5.35466 14.5909L5.74551 14.9028L5.75035 14.8965L5.35466 14.5909ZM10.1994 8.31938L9.81343 8.00151L9.80847 8.00753L9.8037 8.01371L10.1994 8.31938ZM10.5295 8.27836L10.8409 7.88692L10.8298 7.87861L10.5295 8.27836ZM12.5685 9.90043L12.8862 9.51423L12.8798 9.50914L12.5685 9.90043ZM13.0724 10.042L13.0106 9.54585L13.0069 9.54634L13.0724 10.042ZM13.7072 9.23148L14.2046 9.17944L14.2034 9.17025L13.7072 9.23148ZM13.4513 8.73734L13.7957 8.37479L13.7812 8.36104L13.7657 8.34849L13.4513 8.73734ZM11.4709 7.14945L11.1561 7.53791L11.1581 7.53955L11.4709 7.14945ZM11.4211 6.74027L11.8127 7.05123L11.8171 7.04547L11.4211 6.74027ZM18.215 17.4082V17.9082C18.3663 17.9082 18.5011 18.0356 18.5011 18.2042L19.0011 18.2041L19.5011 18.2041C19.501 17.4949 18.9302 16.9082 18.215 16.9082V17.4082ZM19.0011 18.2041H18.5011C18.5011 18.3732 18.3668 18.5 18.215 18.5V19V19.5C18.9298 19.5 19.5011 18.9147 19.5011 18.2041H19.0011ZM18.215 19V18.5H13.7736V19V19.5H18.215V19ZM13.7736 19L13.7739 18.5C13.6226 18.5 13.4885 18.3736 13.4885 18.2041H12.9885H12.4885C12.4885 18.914 13.0584 19.4997 13.7733 19.5L13.7736 19ZM12.9885 18.2041L13.4885 18.2042C13.4885 18.0352 13.6231 17.9083 13.7739 17.9082L13.7736 17.4082L13.7733 16.9082C13.058 16.9086 12.4886 17.4956 12.4885 18.2041L12.9885 18.2041ZM13.7736 17.4082V17.9082H18.215V17.4082V16.9082H13.7736V17.4082ZM12.1886 5.74418L12.5831 6.05141C13.0931 5.39657 14.0048 5.28323 14.8247 5.93531L15.1359 5.54398L15.4471 5.15266C14.2695 4.216 12.7039 4.26893 11.7942 5.43695L12.1886 5.74418ZM15.1359 5.54398L14.825 5.93555L15.9725 6.84669L16.2834 6.45512L16.5943 6.06355L15.4468 5.15242L15.1359 5.54398ZM16.2834 6.45512L15.9753 6.84895C16.3643 7.15321 16.6045 7.54012 16.6847 7.92133L17.174 7.8184L17.6633 7.71546C17.5289 7.07674 17.1431 6.49281 16.5914 6.06128L16.2834 6.45512ZM17.174 7.8184L16.6857 7.92608C16.7755 8.33304 16.6857 8.73303 16.4006 9.09903L16.7951 9.40629L17.1895 9.71355C17.6467 9.12667 17.8199 8.42537 17.6623 7.71072L17.174 7.8184ZM16.7951 9.40629L16.3996 9.10043L9.5646 17.9393L9.96013 18.2452L10.3557 18.551L17.1906 9.71215L16.7951 9.40629ZM9.96013 18.2452L9.56618 17.9373C9.34587 18.2191 9.02521 18.3751 8.68021 18.381L8.68865 18.8809L8.69709 19.3808C9.34255 19.3699 9.94707 19.0738 10.3541 18.5531L9.96013 18.2452ZM8.68865 18.8809L8.68255 18.3809L5.95892 18.4141L5.96502 18.9141L5.97111 19.4141L8.69474 19.3809L8.68865 18.8809ZM5.96502 18.9141L5.9652 18.4141C6.05041 18.4141 6.12694 18.4754 6.1463 18.5584L5.65935 18.6719L5.1724 18.7854C5.25795 19.1524 5.58275 19.414 5.96483 19.4141L5.96502 18.9141ZM5.65935 18.6719L6.14656 18.5595L5.52742 15.875L5.04021 15.9873L4.553 16.0997L5.17214 18.7843L5.65935 18.6719ZM5.04021 15.9873L5.5288 15.8811C5.45166 15.5263 5.53098 15.1715 5.74546 14.9028L5.35466 14.5909L4.96387 14.279C4.5511 14.7961 4.41429 15.4618 4.55162 16.0936L5.04021 15.9873ZM5.35466 14.5909L5.75035 14.8965L10.5951 8.62504L10.1994 8.31938L9.8037 8.01371L4.95898 14.2852L5.35466 14.5909ZM10.1994 8.31938L10.5853 8.63724C10.4968 8.74481 10.3426 8.76332 10.2291 8.67811L10.5295 8.27836L10.8298 7.87861C10.5183 7.64461 10.0671 7.69345 9.81343 8.00151L10.1994 8.31938ZM10.5295 8.27836L10.2182 8.66965L12.2573 10.2917L12.5685 9.90043L12.8798 9.50914L10.8407 7.88707L10.5295 8.27836ZM12.5685 9.90043L12.2509 10.2866C12.4873 10.481 12.8074 10.5814 13.1379 10.5377L13.0724 10.042L13.0069 9.54634C12.9579 9.55282 12.9139 9.53708 12.8862 9.51429L12.5685 9.90043ZM13.0724 10.042L13.1342 10.5382C13.8228 10.4524 14.2724 9.82861 14.2045 9.17945L13.7072 9.23148L13.2099 9.28352C13.2242 9.41991 13.1304 9.53095 13.0106 9.54587L13.0724 10.042ZM13.7072 9.23148L14.2034 9.17025C14.1624 8.8376 13.9985 8.5674 13.7957 8.37479L13.4513 8.73734L13.107 9.0999C13.1684 9.15814 13.2025 9.22401 13.211 9.29272L13.7072 9.23148ZM13.4513 8.73734L13.7657 8.34849C13.711 8.30431 11.8082 6.77906 11.7836 6.75936L11.4709 7.14945L11.1581 7.53955C11.1849 7.561 13.0844 9.08367 13.137 9.1262L13.4513 8.73734ZM11.4709 7.14945L11.7857 6.761C11.8632 6.8238 11.8935 6.94939 11.8126 7.0512L11.4211 6.74027L11.0295 6.42935C10.7508 6.78034 10.831 7.27449 11.1561 7.53791L11.4709 7.14945ZM11.4211 6.74027L11.8171 7.04547L12.5847 6.04937L12.1886 5.74418L11.7926 5.43899L11.025 6.43508L11.4211 6.74027Z" fill="url(#paint0_linear_376_215)"/>
<defs>
<linearGradient id="paint0_linear_376_215" x1="5" y1="7.07813" x2="19.1402" y2="7.27747" gradientUnits="userSpaceOnUse">
<stop stop-color="#F6405B"/>
<stop offset="1" stop-color="#EF2B48"/>
</linearGradient>
</defs>
</svg>
