<svg width="41" height="40" viewBox="0 0 41 40" fill="none" xmlns="http://www.w3.org/2000/svg">
<path d="M15.5 28.3333C16.9167 27.2833 18.6417 26.6666 20.5 26.6666C22.3583 26.6666 24.0833 27.2833 25.5 28.3333" stroke="#D2D2D2" stroke-width="2" stroke-linecap="round"/>
<path d="M25.5007 20C26.4211 20 27.1673 18.8807 27.1673 17.5C27.1673 16.1193 26.4211 15 25.5007 15C24.5802 15 23.834 16.1193 23.834 17.5C23.834 18.8807 24.5802 20 25.5007 20Z" fill="#D2D2D2"/>
<path d="M15.5007 20C16.4211 20 17.1673 18.8807 17.1673 17.5C17.1673 16.1193 16.4211 15 15.5007 15C14.5802 15 13.834 16.1193 13.834 17.5C13.834 18.8807 14.5802 20 15.5007 20Z" fill="#D2D2D2"/>
<path d="M37.1673 20C37.1673 27.8566 37.1673 31.785 34.7257 34.225C32.2873 36.6666 28.3573 36.6666 20.5007 36.6666C12.644 36.6666 8.71565 36.6666 6.27398 34.225C3.83398 31.7866 3.83398 27.8566 3.83398 20C3.83398 12.1433 3.83398 8.21498 6.27398 5.77331C8.71732 3.33331 12.644 3.33331 20.5007 3.33331C28.3573 3.33331 32.2857 3.33331 34.7257 5.77331C36.349 7.39665 36.8923 9.67831 37.0756 13.3333" stroke="#D2D2D2" stroke-width="2" stroke-linecap="round"/>
</svg>
