<svg width="31" height="31" viewBox="0 0 31 31" fill="none" xmlns="http://www.w3.org/2000/svg">
<path d="M15.5 30.4199C13.425 30.4199 11.475 30.0259 9.65 29.2379C7.825 28.4499 6.2375 27.3814 4.8875 26.0324C3.5375 24.6834 2.469 23.0959 1.682 21.2699C0.895002 19.4439 0.501002 17.4939 0.500002 15.4199C0.499002 13.3459 0.893002 11.3959 1.682 9.56992C2.471 7.74392 3.5395 6.15642 4.8875 4.80742C6.2355 3.45842 7.823 2.38992 9.65 1.60192C11.477 0.813922 13.427 0.419922 15.5 0.419922C17.573 0.419922 19.523 0.813922 21.35 1.60192C23.177 2.38992 24.7645 3.45842 26.1125 4.80742C27.4605 6.15642 28.5295 7.74392 29.3195 9.56992C30.1095 11.3959 30.503 13.3459 30.5 15.4199C30.497 17.4939 30.103 19.4439 29.318 21.2699C28.533 23.0959 27.4645 24.6834 26.1125 26.0324C24.7605 27.3814 23.173 28.4504 21.35 29.2394C19.527 30.0284 17.577 30.4219 15.5 30.4199Z" fill="#FFDCE1" fill-opacity="0.8"/>
<path d="M15.5 0.669922C17.5403 0.669923 19.4566 1.05715 21.251 1.83105C23.0502 2.60707 24.6109 3.65872 25.9355 4.98438C27.2602 6.31006 28.3118 7.87072 29.0898 9.66895C29.8657 11.4622 30.253 13.3787 30.25 15.4199C30.247 17.4614 29.8589 19.3775 29.0879 21.1709C28.3149 22.9689 27.2641 24.5298 25.9355 25.8555C24.6068 27.1812 23.0461 28.2328 21.251 29.0098C19.4608 29.7845 17.5444 30.1719 15.5 30.1699L15.1182 30.165C13.2183 30.1196 11.4292 29.7342 9.74902 29.0088C7.95179 28.2328 6.3912 27.1812 5.06445 25.8555C3.73779 24.5298 2.68613 22.9691 1.91113 21.1709C1.13824 19.3776 0.751 17.4613 0.75 15.4199C0.749016 13.3786 1.13626 11.4623 1.91113 9.66895C2.68816 7.87065 3.73972 6.31011 5.06445 4.98438C6.38912 3.65872 7.9498 2.60707 9.74902 1.83105C11.5434 1.05715 13.4597 0.669922 15.5 0.669922Z" stroke="#F6405B" stroke-opacity="0.5" stroke-width="0.5"/>
<path d="M15.5 27.0947C13.8852 27.0947 12.3676 26.7881 10.9474 26.1748C9.52713 25.5616 8.2917 24.7301 7.24111 23.6802C6.19051 22.6304 5.35898 21.395 4.74652 19.974C4.13406 18.5529 3.82744 17.0354 3.82666 15.4214C3.82588 13.8073 4.1325 12.2898 4.74652 10.8688C5.36053 9.44774 6.19206 8.21231 7.24111 7.16249C8.29015 6.11267 9.52557 5.28114 10.9474 4.6679C12.3692 4.05467 13.8867 3.74805 15.5 3.74805C17.1132 3.74805 18.6308 4.05467 20.0526 4.6679C21.4744 5.28114 22.7098 6.11267 23.7588 7.16249C24.8079 8.21231 25.6398 9.44774 26.2546 10.8688C26.8694 12.2898 27.1756 13.8073 27.1733 15.4214C27.1709 17.0354 26.8643 18.5529 26.2534 19.974C25.6425 21.395 24.811 22.6304 23.7588 23.6802C22.7067 24.7301 21.4713 25.562 20.0526 26.176C18.6339 26.79 17.1163 27.0962 15.5 27.0947Z" fill="#F6405B"/>
<path d="M15.5 21.2573C15.8307 21.2573 16.1082 21.1452 16.3323 20.9211C16.5564 20.697 16.6681 20.4199 16.6673 20.09C16.6665 19.76 16.5545 19.483 16.3311 19.2588C16.1078 19.0347 15.8307 18.9226 15.5 18.9226C15.1692 18.9226 14.8922 19.0347 14.6688 19.2588C14.4455 19.483 14.3334 19.76 14.3326 20.09C14.3319 20.4199 14.4439 20.6974 14.6688 20.9223C14.8937 21.1472 15.1708 21.2589 15.5 21.2573ZM15.5 16.588C15.8307 16.588 16.1082 16.4759 16.3323 16.2518C16.5564 16.0277 16.6681 15.7506 16.6673 15.4206V10.7513C16.6673 10.4206 16.5552 10.1435 16.3311 9.92018C16.107 9.69683 15.8299 9.58477 15.5 9.58399C15.17 9.58321 14.893 9.69527 14.6688 9.92018C14.4447 10.1451 14.3326 10.4221 14.3326 10.7513V15.4206C14.3326 15.7514 14.4447 16.0288 14.6688 16.253C14.893 16.4771 15.17 16.5888 15.5 16.588Z" fill="white"/>
</svg>
