<svg width="53" height="65" viewBox="0 0 53 65" fill="none" xmlns="http://www.w3.org/2000/svg">
<path d="M29.8125 22.75H48.0312L29.8125 4.875V22.75ZM6.625 0H33.125L53 19.5V58.5C53 60.2239 52.302 61.8772 51.0596 63.0962C49.8172 64.3152 48.1321 65 46.375 65H6.625C4.86794 65 3.18285 64.3152 1.94042 63.0962C0.697989 61.8772 0 60.2239 0 58.5V6.5C0 4.77609 0.697989 3.12279 1.94042 1.90381C3.18285 0.684819 4.86794 0 6.625 0ZM22.9556 33.93C24.3138 36.855 26.0362 39.26 28.0238 40.9175L29.3819 41.9575C26.5 42.4775 22.525 43.3875 18.3181 44.98L17.9538 45.11L19.61 41.73C21.1006 38.9025 22.1938 36.335 22.9556 33.93ZM44.4206 46.3125C45.0169 45.7275 45.315 44.98 45.3481 44.1675C45.4475 43.5175 45.2819 42.9 44.9506 42.38C43.99 40.8525 41.5056 40.1375 37.3981 40.1375L33.125 40.365L30.2431 38.48C28.1562 36.79 26.2681 33.8325 24.9431 30.16L25.0756 29.705C26.1687 25.3825 27.1956 20.15 25.0094 18.005C24.742 17.7502 24.4256 17.5501 24.0788 17.4162C23.7319 17.2823 23.3614 17.2173 22.9887 17.225H22.1937C20.9681 17.225 19.875 18.4925 19.5769 19.7275C18.3512 24.05 19.08 26.4225 20.3056 30.355V30.3875C19.4775 33.2475 18.4175 36.5625 16.7281 39.91L13.5481 45.76L10.6 47.3525C6.625 49.79 4.73688 52.52 4.3725 54.2425C4.24 54.86 4.30625 55.4125 4.53812 55.9975L4.6375 56.16L6.2275 57.1675L7.685 57.525C10.3681 57.525 13.4156 54.4375 17.5231 47.5475L18.1194 47.32C21.5312 46.2475 25.7712 45.5 31.4688 44.8825C34.8806 46.54 38.8887 47.2875 41.4062 47.2875C42.8638 47.2875 43.8575 46.93 44.4206 46.3125ZM43.0625 44.005L43.3606 44.3625C43.3275 44.6875 43.2281 44.72 43.0625 44.785H42.93L42.3006 44.85C40.7769 44.85 38.425 44.2325 36.0069 43.1925C36.305 42.8675 36.4375 42.8675 36.7688 42.8675C41.4062 42.8675 42.7313 43.68 43.0625 44.005ZM12.6869 48.75C10.5337 52.6175 8.57937 54.7625 7.08875 55.25C7.25437 54.015 8.745 51.87 11.0969 49.7575L12.6869 48.75ZM22.6906 26.2925C21.9288 23.3675 21.8956 20.995 22.4587 19.63L22.6906 19.24L23.1875 19.4025C23.7506 20.1825 23.8169 21.2225 23.4856 22.9775L23.3863 23.4975L22.8562 26.1625L22.6906 26.2925Z" fill="url(#paint0_linear_1137_2516)"/>
<defs>
<linearGradient id="paint0_linear_1137_2516" x1="-4.06159e-09" y1="9.64844" x2="53.5299" y2="10.2637" gradientUnits="userSpaceOnUse">
<stop stop-color="#F6405B"/>
<stop offset="1" stop-color="#EF2B48"/>
</linearGradient>
</defs>
</svg>
