<svg width="24" height="24" viewBox="0 0 24 24" fill="none" xmlns="http://www.w3.org/2000/svg">
<path d="M22.0625 0.5H1.9375C1.55625 0.5 1.19062 0.65145 0.921034 0.921034C0.65145 1.19062 0.5 1.55625 0.5 1.9375L0.5 22.0625C0.5 22.4437 0.65145 22.8094 0.921034 23.079C1.19062 23.3485 1.55625 23.5 1.9375 23.5H22.0625C22.4437 23.5 22.8094 23.3485 23.079 23.079C23.3485 22.8094 23.5 22.4437 23.5 22.0625V1.9375C23.5 1.55625 23.3485 1.19062 23.079 0.921034C22.8094 0.65145 22.4437 0.5 22.0625 0.5ZM3.61458 4.8125C3.61707 4.62265 3.69359 4.44127 3.82784 4.30701C3.9621 4.17275 4.14348 4.09623 4.33333 4.09375H10.0833C10.2732 4.09623 10.4546 4.17275 10.5888 4.30701C10.7231 4.44127 10.7996 4.62265 10.8021 4.8125V6.25C10.8021 6.44062 10.7264 6.62344 10.5916 6.75823C10.4568 6.89302 10.274 6.96875 10.0833 6.96875C9.89271 6.96875 9.70989 6.89302 9.5751 6.75823C9.44031 6.62344 9.36458 6.44062 9.36458 6.25V5.53125H7.92708V10.3229C7.92708 10.5135 7.85136 10.6964 7.71657 10.8311C7.58177 10.9659 7.39896 11.0417 7.20833 11.0417C7.01771 11.0417 6.83489 10.9659 6.7001 10.8311C6.56531 10.6964 6.48958 10.5135 6.48958 10.3229V5.53125H5.05208V6.25C5.05208 6.44062 4.97636 6.62344 4.84157 6.75823C4.70677 6.89302 4.52396 6.96875 4.33333 6.96875C4.14271 6.96875 3.95989 6.89302 3.8251 6.75823C3.69031 6.62344 3.61458 6.44062 3.61458 6.25V4.8125ZM19.1875 19.9062H4.33333C4.14271 19.9062 3.95989 19.8305 3.8251 19.6957C3.69031 19.5609 3.61458 19.3781 3.61458 19.1875C3.61458 18.9969 3.69031 18.8141 3.8251 18.6793C3.95989 18.5445 4.14271 18.4688 4.33333 18.4688H19.1875C19.3781 18.4688 19.5609 18.5445 19.6957 18.6793C19.8305 18.8141 19.9062 18.9969 19.9062 19.1875C19.9062 19.3781 19.8305 19.5609 19.6957 19.6957C19.5609 19.8305 19.3781 19.9062 19.1875 19.9062ZM19.1875 15.1146H4.33333C4.14271 15.1146 3.95989 15.0389 3.8251 14.9041C3.69031 14.7693 3.61458 14.5865 3.61458 14.3958C3.61458 14.2052 3.69031 14.0224 3.8251 13.8876C3.95989 13.7528 4.14271 13.6771 4.33333 13.6771H19.1875C19.3781 13.6771 19.5609 13.7528 19.6957 13.8876C19.8305 14.0224 19.9062 14.2052 19.9062 14.3958C19.9062 14.5865 19.8305 14.7693 19.6957 14.9041C19.5609 15.0389 19.3781 15.1146 19.1875 15.1146ZM19.1875 10.3229H13.1979C13.0073 10.3229 12.8245 10.2472 12.6897 10.1124C12.5549 9.97761 12.4792 9.79479 12.4792 9.60417C12.4792 9.41354 12.5549 9.23073 12.6897 9.09593C12.8245 8.96114 13.0073 8.88542 13.1979 8.88542H19.1875C19.3781 8.88542 19.5609 8.96114 19.6957 9.09593C19.8305 9.23073 19.9062 9.41354 19.9062 9.60417C19.9062 9.79479 19.8305 9.97761 19.6957 10.1124C19.5609 10.2472 19.3781 10.3229 19.1875 10.3229ZM19.1875 5.53125H13.1979C13.0073 5.53125 12.8245 5.45552 12.6897 5.32073C12.5549 5.18594 12.4792 5.00312 12.4792 4.8125C12.4792 4.62188 12.5549 4.43906 12.6897 4.30427C12.8245 4.16948 13.0073 4.09375 13.1979 4.09375H19.1875C19.3781 4.09375 19.5609 4.16948 19.6957 4.30427C19.8305 4.43906 19.9062 4.62188 19.9062 4.8125C19.9062 5.00312 19.8305 5.18594 19.6957 5.32073C19.5609 5.45552 19.3781 5.53125 19.1875 5.53125Z" fill="url(#paint0_linear_1140_3008)"/>
<defs>
<linearGradient id="paint0_linear_1140_3008" x1="0.5" y1="3.91406" x2="23.7284" y2="4.2415" gradientUnits="userSpaceOnUse">
<stop stop-color="#F6405B"/>
<stop offset="1" stop-color="#EF2B48"/>
</linearGradient>
</defs>
</svg>
