<svg width="39" height="39" viewBox="0 0 39 39" fill="none" xmlns="http://www.w3.org/2000/svg">
<g filter="url(#filter0_i_200_442)">
<circle cx="19.5" cy="19.5" r="19.5" fill="url(#paint0_linear_200_442)"/>
<circle cx="19.5" cy="19.5" r="19.5" fill="url(#paint1_linear_200_442)" fill-opacity="0.2"/>
<circle cx="19.5" cy="19.5" r="19" stroke="#D5D5D6" stroke-opacity="0.25"/>
<path d="M16.737 13.15C16.3498 12.8122 15.8725 12.5947 15.3635 12.5239C14.8546 12.4532 14.336 12.5324 13.8714 12.7517C13.4067 12.9711 13.0161 13.3211 12.7472 13.759C12.4784 14.1969 12.3431 14.7037 12.3577 15.2173C12.3724 15.731 12.5365 16.2292 12.8299 16.651C13.1234 17.0728 13.5334 17.4 14.0098 17.5924C14.4863 17.7849 15.0085 17.8342 15.5125 17.7345C16.0166 17.6348 16.4807 17.3903 16.848 17.031C17.1876 17.5585 17.6541 17.9923 18.2047 18.2928C18.7554 18.5933 19.3727 18.7508 20 18.751C20.6271 18.751 21.2443 18.5938 21.7949 18.2937C22.3456 17.9935 22.8122 17.5601 23.152 17.033C23.5193 17.3923 23.9834 17.6368 24.4874 17.7365C24.9915 17.8362 25.5137 17.7869 25.9901 17.5944C26.4666 17.402 26.8766 17.0748 27.17 16.653C27.4634 16.2312 27.6275 15.733 27.6422 15.2193C27.6569 14.7057 27.5216 14.1989 27.2527 13.761C26.9839 13.3231 26.5933 12.9731 26.1286 12.7537C25.6639 12.5344 25.1454 12.4552 24.6365 12.5259C24.1275 12.5967 23.6502 12.8142 23.263 13.152C22.936 12.5746 22.4617 12.0944 21.8884 11.7602C21.3152 11.4261 20.6635 11.25 20 11.25C19.3366 11.2498 18.6851 11.4256 18.1119 11.7594C17.5387 12.0931 17.0642 12.573 16.737 13.15ZM17.75 15C17.75 14.4033 17.987 13.831 18.409 13.409C18.8309 12.9871 19.4032 12.75 20 12.75C20.5967 12.75 21.169 12.9871 21.591 13.409C22.0129 13.831 22.25 14.4033 22.25 15C22.25 15.5967 22.0129 16.169 21.591 16.591C21.169 17.0129 20.5967 17.25 20 17.25C19.4032 17.25 18.8309 17.0129 18.409 16.591C17.987 16.169 17.75 15.5967 17.75 15ZM16.338 14.19C16.2044 14.7946 16.2223 15.4229 16.39 16.019C16.2005 16.3211 15.9178 16.5533 15.5846 16.6805C15.2515 16.8077 14.886 16.823 14.5434 16.724C14.2007 16.6251 13.8997 16.4173 13.6856 16.132C13.4716 15.8468 13.3562 15.4996 13.357 15.143C13.3572 14.795 13.4679 14.456 13.6731 14.1749C13.8784 13.8939 14.1676 13.6853 14.499 13.5792C14.8305 13.473 15.1871 13.4749 15.5174 13.5845C15.8477 13.6941 16.1347 13.9058 16.337 14.189M23.609 16.018C23.7772 15.4217 23.7951 14.7929 23.661 14.188C23.8654 13.9012 24.1567 13.6877 24.4917 13.579C24.8267 13.4703 25.1878 13.4721 25.5217 13.5842C25.8556 13.6963 26.1446 13.9127 26.3462 14.2015C26.5478 14.4904 26.6512 14.8363 26.6412 15.1884C26.6311 15.5405 26.5083 15.88 26.2906 16.157C26.073 16.4339 25.7721 16.6336 25.4324 16.7265C25.0927 16.8195 24.7321 16.8008 24.4038 16.6732C24.0754 16.5456 23.7968 16.3159 23.609 16.018ZM12.951 18.297C13.298 18.205 13.626 18.319 13.852 18.483C13.942 18.548 14.066 18.628 14.217 18.701C14.3326 18.7609 14.4203 18.8635 14.4614 18.9871C14.5025 19.1106 14.4938 19.2453 14.4371 19.3625C14.3805 19.4798 14.2803 19.5703 14.158 19.6148C14.0356 19.6593 13.9007 19.6544 13.782 19.601C13.6009 19.5138 13.4279 19.4107 13.265 19.293C13.2488 19.2814 13.2309 19.2723 13.212 19.266L13.205 19.265C13.0701 19.301 12.9364 19.341 12.804 19.385L12.118 19.609C11.8622 19.6923 11.6309 19.8376 11.4449 20.032C11.2589 20.2264 11.1239 20.4638 11.052 20.723L10.769 22.772C10.713 23.175 10.926 23.477 11.229 23.549C11.4523 23.6037 11.7233 23.657 12.042 23.709C12.1069 23.7195 12.169 23.7427 12.2249 23.7772C12.2809 23.8117 12.3294 23.857 12.3679 23.9103C12.4063 23.9636 12.4339 24.0239 12.449 24.0879C12.4641 24.1518 12.4665 24.2181 12.456 24.283C12.4455 24.3479 12.4223 24.41 12.3878 24.466C12.3532 24.5219 12.308 24.5704 12.2547 24.6089C12.2014 24.6473 12.1411 24.6749 12.0771 24.69C12.0132 24.7051 11.9469 24.7075 11.882 24.697C11.5852 24.6498 11.2904 24.5914 10.998 24.522C10.103 24.309 9.66498 23.452 9.77798 22.635L10.07 20.529L10.076 20.502C10.1855 20.0738 10.4015 19.6803 10.704 19.3581C11.0065 19.0358 11.3856 18.7953 11.806 18.659L12.491 18.434C12.6443 18.384 12.7976 18.3383 12.951 18.297ZM27.18 18.297C27.0256 18.2592 26.8647 18.2563 26.709 18.2885C26.5533 18.3206 26.4068 18.3871 26.28 18.483C26.19 18.548 26.066 18.628 25.915 18.701C25.7994 18.7609 25.7117 18.8635 25.6706 18.9871C25.6295 19.1106 25.6382 19.2453 25.6948 19.3625C25.7515 19.4798 25.8516 19.5703 25.974 19.6148C26.0963 19.6593 26.2312 19.6544 26.35 19.601C26.5311 19.5138 26.7041 19.4107 26.867 19.293C26.8832 19.2814 26.9011 19.2723 26.92 19.266L26.927 19.265C27.0623 19.3003 27.196 19.3403 27.328 19.385L28.014 19.609C28.54 19.782 28.939 20.203 29.08 20.723L29.363 22.772C29.419 23.175 29.207 23.477 28.903 23.549C28.6341 23.6125 28.3629 23.6659 28.09 23.709C28.0251 23.7195 27.9629 23.7427 27.907 23.7772C27.8511 23.8117 27.8025 23.857 27.7641 23.9103C27.7257 23.9636 27.6981 24.0239 27.683 24.0879C27.6679 24.1518 27.6655 24.2181 27.676 24.283C27.6865 24.3479 27.7097 24.41 27.7442 24.466C27.7787 24.5219 27.8239 24.5704 27.8772 24.6089C27.9305 24.6473 27.9909 24.6749 28.0548 24.69C28.1188 24.7051 28.1851 24.7075 28.25 24.697C28.5913 24.6403 28.886 24.582 29.134 24.522C30.029 24.309 30.467 23.452 30.354 22.635L30.062 20.529L30.056 20.502C29.9465 20.0738 29.7304 19.6803 29.4279 19.3581C29.1255 19.0358 28.7464 18.7953 28.326 18.659L27.641 18.434C27.4889 18.3843 27.3345 18.3386 27.18 18.297Z" fill="white"/>
<path d="M21.6531 19.712C22.0491 19.449 22.6261 19.242 23.2361 19.415C23.3961 19.4597 23.5551 19.508 23.7131 19.56L24.6721 19.875C25.2685 20.0688 25.8062 20.4103 26.2352 20.8677C26.6642 21.325 26.9707 21.8834 27.1261 22.491L27.1361 22.531L27.5451 25.481C27.7061 26.645 27.0821 27.874 25.8011 28.179C24.6311 28.458 22.7481 28.75 20.0011 28.75C17.2511 28.75 15.3701 28.458 14.1991 28.18C12.9181 27.874 12.2941 26.645 12.4551 25.482L12.8631 22.532L12.8731 22.492C13.0284 21.8841 13.335 21.3255 13.7642 20.8679C14.1934 20.4104 14.7314 20.0688 15.3281 19.875L16.2881 19.56C16.4461 19.5087 16.6047 19.46 16.7641 19.414C17.3741 19.242 17.9521 19.449 18.3471 19.712C18.7071 19.95 19.2891 20.236 20.0001 20.236C20.7111 20.236 21.2941 19.95 21.6531 19.712ZM22.8281 20.858C22.7801 20.844 22.6571 20.846 22.4831 20.961C21.9811 21.294 21.1101 21.736 20.0001 21.736C18.8901 21.736 18.0191 21.294 17.5181 20.961C17.3431 20.846 17.2201 20.844 17.1721 20.858C17.0321 20.898 16.8934 20.9403 16.7561 20.985L15.7961 21.3C15.4461 21.4138 15.1297 21.6124 14.8752 21.8781C14.6206 22.1438 14.4357 22.4685 14.3371 22.823L13.9411 25.687C13.8661 26.231 14.1511 26.626 14.5471 26.72C15.5941 26.97 17.3581 27.25 20.0001 27.25C22.6421 27.25 24.4071 26.97 25.4531 26.72C25.8491 26.626 26.1341 26.231 26.0591 25.687L25.6631 22.823C25.5643 22.4683 25.3793 22.1437 25.1246 21.8779C24.8698 21.6122 24.5532 21.4136 24.2031 21.3L23.2451 20.985C23.107 20.9396 22.968 20.8973 22.8281 20.858Z" fill="white"/>
</g>
<defs>
<filter id="filter0_i_200_442" x="0" y="0" width="39" height="43" filterUnits="userSpaceOnUse" color-interpolation-filters="sRGB">
<feFlood flood-opacity="0" result="BackgroundImageFix"/>
<feBlend mode="normal" in="SourceGraphic" in2="BackgroundImageFix" result="shape"/>
<feColorMatrix in="SourceAlpha" type="matrix" values="0 0 0 0 0 0 0 0 0 0 0 0 0 0 0 0 0 0 127 0" result="hardAlpha"/>
<feOffset dy="4"/>
<feGaussianBlur stdDeviation="5"/>
<feComposite in2="hardAlpha" operator="arithmetic" k2="-1" k3="1"/>
<feColorMatrix type="matrix" values="0 0 0 0 1 0 0 0 0 1 0 0 0 0 1 0 0 0 0.5 0"/>
<feBlend mode="normal" in2="shape" result="effect1_innerShadow_200_442"/>
</filter>
<linearGradient id="paint0_linear_200_442" x1="19.5" y1="0" x2="37.8004" y2="26.2339" gradientUnits="userSpaceOnUse">
<stop stop-color="#F6405B"/>
<stop offset="1" stop-color="#EF2B48"/>
</linearGradient>
<linearGradient id="paint1_linear_200_442" x1="19.5" y1="19.5" x2="19.5" y2="39" gradientUnits="userSpaceOnUse">
<stop stop-color="#EF2B48" stop-opacity="0"/>
<stop offset="0.817308" stop-color="white"/>
</linearGradient>
</defs>
</svg>
