<svg width="21" height="20" viewBox="0 0 21 20" fill="none" xmlns="http://www.w3.org/2000/svg">
<path d="M6.7998 0.917969C8.3098 -0.252031 10.72 -0.311914 12.29 0.788086L18.0498 4.81738C19.1498 5.58736 20.0195 7.24767 20.0195 8.59766V15.3779C20.0194 17.9277 17.9502 19.9978 15.4004 19.998H4.62012C2.07025 19.998 0.000218364 17.918 0 15.3682V8.46777C0 7.20784 0.790112 5.60817 1.79004 4.82812L6.7998 0.917969ZM10.0098 12.248C9.59977 12.248 9.25978 12.5881 9.25977 12.998V15.998C9.25977 16.408 9.59977 16.748 10.0098 16.748C10.4198 16.748 10.7598 16.408 10.7598 15.998V12.998C10.7598 12.5881 10.4198 12.248 10.0098 12.248Z" fill="url(#paint0_linear_3113_1794)"/>
<defs>
<linearGradient id="paint0_linear_3113_1794" x1="-1.53417e-09" y1="2.96842" x2="20.2183" y2="3.25373" gradientUnits="userSpaceOnUse">
<stop stop-color="#F6405B"/>
<stop offset="1" stop-color="#EF2B48"/>
</linearGradient>
</defs>
</svg>
