<svg width="24" height="24" viewBox="0 0 24 24" fill="none" xmlns="http://www.w3.org/2000/svg">
<path d="M9.18848 3.43408C10.3931 2.50073 12.3119 2.39623 13.6484 3.15869L13.9072 3.32275L19.668 7.35303C20.1128 7.66454 20.5423 8.18234 20.8613 8.79346C21.1805 9.4048 21.3603 10.0542 21.3604 10.6001V17.3804C21.3602 19.5712 19.5814 21.3499 17.3906 21.3501H6.61035C4.4213 21.3501 2.64085 19.5633 2.64063 17.3706L2.64063 10.4702C2.64063 9.96444 2.80286 9.34813 3.09375 8.75732C3.38446 8.16693 3.77534 7.65768 4.17969 7.34229L9.1875 3.43311L9.18848 3.43408Z" fill="url(#paint0_linear_2699_980)" stroke="white" stroke-width="1.3"/>
<path d="M12 14.9004C12.0221 14.9004 12.0474 14.9087 12.0693 14.9307C12.0913 14.9526 12.0996 14.9779 12.0996 15V18C12.0996 18.0221 12.0913 18.0474 12.0693 18.0693C12.0474 18.0913 12.0221 18.0996 12 18.0996C11.9779 18.0996 11.9526 18.0913 11.9307 18.0693C11.9087 18.0474 11.9004 18.0221 11.9004 18V15C11.9004 14.9779 11.9087 14.9526 11.9307 14.9307C11.9526 14.9087 11.9779 14.9004 12 14.9004Z" fill="#8C8C8C" stroke="white" stroke-width="1.3"/>
<defs>
<linearGradient id="paint0_linear_2699_980" x1="1.99023" y1="4.97086" x2="22.209" y2="5.25618" gradientUnits="userSpaceOnUse">
<stop stop-color="#F6405B"/>
<stop offset="1" stop-color="#EF2B48"/>
</linearGradient>
</defs>
</svg>
