<svg width="24" height="24" viewBox="0 0 24 24" fill="none" xmlns="http://www.w3.org/2000/svg">
<path d="M9.18848 3.4339C10.3931 2.50054 12.3119 2.39605 13.6484 3.15851L13.9072 3.32257L19.668 7.35284C20.1128 7.66436 20.5423 8.18216 20.8613 8.79327C21.1805 9.40462 21.3603 10.054 21.3604 10.5999V17.3802C21.3602 19.571 19.5814 21.3497 17.3906 21.3499H6.61035C4.4213 21.3499 2.64085 19.5631 2.64063 17.3704L2.64063 10.47C2.64063 9.96426 2.80286 9.34795 3.09375 8.75714C3.38446 8.16674 3.77534 7.6575 4.17969 7.3421L9.1875 3.43292L9.18848 3.4339Z" stroke="#8C8C8C" stroke-width="1.3"/>
<path d="M12 18.75C11.59 18.75 11.25 18.41 11.25 18V15C11.25 14.59 11.59 14.25 12 14.25C12.41 14.25 12.75 14.59 12.75 15V18C12.75 18.41 12.41 18.75 12 18.75Z" fill="#8C8C8C"/>
</svg>
