<svg width="11" height="7" viewBox="0 0 11 7" fill="none" xmlns="http://www.w3.org/2000/svg">
<path d="M10.846 3.27957L8.82769 0.38963C8.74398 0.269774 8.63056 0.171499 8.49751 0.103529C8.36445 0.0355593 8.21588 -2.53953e-06 8.06497 1.36019e-10H2.93503C2.78413 4.61503e-07 2.63555 0.0355638 2.5025 0.103533C2.36945 0.171503 2.25604 0.269776 2.17233 0.38963L0.153962 3.27957C0.0535755 3.4233 4.6397e-06 3.59218 0 3.76492L0 6.125C0 6.60825 0.410399 7 0.916667 7H10.0833C10.5896 7 11 6.60825 11 6.125V3.76492C11 3.59218 10.9464 3.4233 10.846 3.27957ZM3.09856 1.16667H7.90146L9.53108 3.5H7.18056L6.56944 4.66667H4.43056L3.81944 3.5H1.46892L3.09856 1.16667Z" fill="#47B4F4"/>
</svg>
