<svg width="23" height="23" viewBox="0 0 23 23" fill="none" xmlns="http://www.w3.org/2000/svg">
<path d="M5.97949 11.5C5.98366 12.6544 6.12824 13.8041 6.41005 14.9236H10.91V8.34027H6.34755C6.10778 9.37655 5.98433 10.4363 5.97949 11.5Z" fill="url(#paint0_linear_1123_1500)"/>
<path d="M12.0898 8.34027V14.9236H16.5898C16.8834 13.8055 17.0396 12.6559 17.0551 11.5C17.0526 10.4366 16.9314 9.37682 16.694 8.34027H12.0898Z" fill="url(#paint1_linear_1123_1500)"/>
<path d="M11.4998 0.388885C9.30222 0.388885 7.154 1.04054 5.32679 2.26145C3.49957 3.48235 2.07543 5.21767 1.23446 7.24796C0.393486 9.27825 0.173449 11.5123 0.602174 13.6677C1.0309 15.823 2.08913 17.8028 3.64305 19.3567C5.19696 20.9107 7.17677 21.9689 9.33212 22.3976C11.4875 22.8263 13.7215 22.6063 15.7518 21.7653C17.7821 20.9244 19.5174 19.5002 20.7383 17.673C21.9592 15.8458 22.6109 13.6976 22.6109 11.5C22.6109 8.55315 21.4403 5.72699 19.3565 3.64325C17.2728 1.55952 14.4466 0.388885 11.4998 0.388885ZM19.9859 16.1597H17.472C16.9967 17.6478 16.2939 19.0533 15.3887 20.3264C14.7204 20.6167 14.0215 20.8311 13.3053 20.9653C14.5885 19.5713 15.5759 17.9319 16.2081 16.1458H12.097V21.1111H10.9234V16.1597H6.79146C7.42282 17.9482 8.41031 19.5901 9.69423 20.9861C8.99279 20.8534 8.30811 20.6438 7.65257 20.3611C6.74411 19.0774 6.04123 17.6599 5.56923 16.1597H3.01368C2.79196 15.7549 2.59934 15.3349 2.43729 14.9028H5.21507C4.95478 13.787 4.81969 12.6457 4.81229 11.5C4.81328 10.438 4.925 9.37907 5.14562 8.34027H2.30534C2.45164 7.90946 2.628 7.48945 2.83312 7.08333H5.47895C5.97589 5.43008 6.74577 3.87155 7.75673 2.47222C8.39835 2.20718 9.06652 2.01162 9.74979 1.88889C8.36777 3.37116 7.3251 5.13659 6.69423 7.0625H10.9234V1.77777H12.097V7.08333H16.3262C15.6964 5.16051 14.6562 3.39758 13.2776 1.91666C13.9598 2.03043 14.6279 2.21667 15.2706 2.47222C16.2757 3.86144 17.0431 5.40795 17.5415 7.04861H20.1595C20.3646 7.45472 20.541 7.87474 20.6873 8.30555H17.8678C18.0932 9.35545 18.2073 10.4262 18.2081 11.5C18.2046 12.6524 18.0718 13.8008 17.8123 14.9236H20.5901C20.4181 15.3494 20.2162 15.7625 19.9859 16.1597Z" fill="url(#paint2_linear_1123_1500)"/>
<defs>
<linearGradient id="paint0_linear_1123_1500" x1="5.97949" y1="9.31748" x2="10.9594" y2="9.37006" gradientUnits="userSpaceOnUse">
<stop stop-color="#F6405B"/>
<stop offset="1" stop-color="#EF2B48"/>
</linearGradient>
<linearGradient id="paint1_linear_1123_1500" x1="12.0898" y1="9.31748" x2="17.1049" y2="9.3708" gradientUnits="userSpaceOnUse">
<stop stop-color="#F6405B"/>
<stop offset="1" stop-color="#EF2B48"/>
</linearGradient>
<linearGradient id="paint2_linear_1123_1500" x1="0.388672" y1="3.6875" x2="22.8316" y2="4.00386" gradientUnits="userSpaceOnUse">
<stop stop-color="#F6405B"/>
<stop offset="1" stop-color="#EF2B48"/>
</linearGradient>
</defs>
</svg>
