<svg width="19" height="16" viewBox="0 0 19 16" fill="none" xmlns="http://www.w3.org/2000/svg">
<path d="M13.9357 3.375C12.9737 2.29946 11.7078 1.54136 10.3055 1.20102C8.90322 0.860675 7.43065 0.954132 6.08265 1.46902C4.73464 1.98392 3.57475 2.89597 2.75644 4.0845C1.93814 5.27303 1.5 6.68201 1.5 8.12501C1.5 9.568 1.93814 10.977 2.75644 12.1655C3.57475 13.354 4.73464 14.2661 6.08265 14.781C7.43065 15.2959 8.90322 15.3893 10.3055 15.049C11.7078 14.7087 12.9737 13.9506 13.9357 12.875M17.3335 8.12501H6.25016M17.3335 8.12501L14.1668 4.95834M17.3335 8.12501L14.1668 11.2917" stroke="white" stroke-width="1.5"/>
</svg>
