<svg width="23" height="24" viewBox="0 0 23 24" fill="none" xmlns="http://www.w3.org/2000/svg">
<path d="M22.0863 11.5275L11.9613 1.4025C11.5562 0.9975 10.9937 0.75 10.375 0.75H2.5C1.2625 0.75 0.25 1.7625 0.25 3V10.875C0.25 11.4937 0.4975 12.0562 0.91375 12.4725L11.0387 22.5975C11.4438 23.0025 12.0063 23.25 12.625 23.25C13.2437 23.25 13.8062 23.0025 14.2113 22.5863L22.0863 14.7113C22.5025 14.3062 22.75 13.7437 22.75 13.125C22.75 12.5063 22.4912 11.9325 22.0863 11.5275ZM4.1875 6.375C3.25375 6.375 2.5 5.62125 2.5 4.6875C2.5 3.75375 3.25375 3 4.1875 3C5.12125 3 5.875 3.75375 5.875 4.6875C5.875 5.62125 5.12125 6.375 4.1875 6.375Z" fill="url(#paint0_linear_1123_1488)"/>
<defs>
<linearGradient id="paint0_linear_1123_1488" x1="0.25" y1="4.08984" x2="22.9734" y2="4.41016" gradientUnits="userSpaceOnUse">
<stop stop-color="#F6405B"/>
<stop offset="1" stop-color="#EF2B48"/>
</linearGradient>
</defs>
</svg>
