<svg width="9" height="11" viewBox="0 0 9 11" fill="none" xmlns="http://www.w3.org/2000/svg">
<path d="M2.625 1.31641H1.375C1.02982 1.31641 0.75 1.59623 0.75 1.94141V9.44141C0.75 9.78658 1.02982 10.0664 1.375 10.0664H2.625C2.97018 10.0664 3.25 9.78658 3.25 9.44141V1.94141C3.25 1.59623 2.97018 1.31641 2.625 1.31641Z" stroke="#8C8C8C" stroke-width="0.75" stroke-linecap="round"/>
<path d="M7.625 1.31641H6.375C6.02982 1.31641 5.75 1.59623 5.75 1.94141V9.44141C5.75 9.78658 6.02982 10.0664 6.375 10.0664H7.625C7.97018 10.0664 8.25 9.78658 8.25 9.44141V1.94141C8.25 1.59623 7.97018 1.31641 7.625 1.31641Z" stroke="#8C8C8C" stroke-width="0.75" stroke-linecap="round"/>
</svg>
