<svg width="39" height="39" viewBox="0 0 39 39" fill="none" xmlns="http://www.w3.org/2000/svg">
<g filter="url(#filter0_i_200_453)">
<circle cx="19.5" cy="19.5" r="19.5" fill="url(#paint0_linear_200_453)"/>
<circle cx="19.5" cy="19.5" r="19" stroke="#D5D5D6" stroke-opacity="0.25"/>
<path d="M15.232 19.0274C15.232 19.259 15.213 19.4815 15.175 19.6949C15.1053 19.9021 15.0103 20.091 14.89 20.2617C14.7633 20.4263 14.6082 20.5573 14.4245 20.6549C14.2345 20.7524 14.0097 20.8011 13.75 20.8011C13.484 20.8011 13.2592 20.7493 13.0755 20.6457C12.8918 20.5421 12.7398 20.405 12.6195 20.2343C12.4992 20.0636 12.4137 19.8716 12.363 19.6583C12.306 19.445 12.2775 19.2255 12.2775 19C12.2775 18.7806 12.306 18.5611 12.363 18.3417C12.4137 18.1284 12.4992 17.9364 12.6195 17.7657C12.7398 17.595 12.8982 17.4579 13.0945 17.3543C13.2845 17.2507 13.5125 17.1989 13.7785 17.1989C14.0508 17.1989 14.2788 17.2507 14.4625 17.3543C14.6525 17.464 14.8045 17.6042 14.9185 17.7749C15.0325 17.9516 15.118 18.1467 15.175 18.36C15.213 18.5794 15.232 18.8019 15.232 19.0274ZM28 19V26.1406C28 26.3783 27.9145 26.5886 27.7435 26.7714C27.5662 26.9238 27.354 27 27.107 27H14.643C14.396 27 14.1838 26.9238 14.0065 26.7714C13.8355 26.5886 13.75 26.3783 13.75 26.1406V23.5714H9.7885C9.5795 23.5714 9.39267 23.4983 9.228 23.352C9.076 23.1935 9 23.0137 9 22.8126V15.1874C9 14.9863 9.076 14.8065 9.228 14.648C9.39267 14.5017 9.5795 14.4286 9.7885 14.4286H14.9375V11.8046C14.9375 11.579 15.0167 11.387 15.175 11.2286C15.3397 11.0762 15.5392 11 15.7735 11L25.9765 11C26.2108 11 26.4103 11.0762 26.575 11.2286C26.7333 11.387 26.8125 11.579 26.8125 11.8046V18.1223L27.8005 18.6709H27.81C27.8607 18.7074 27.905 18.7562 27.943 18.8171C27.981 18.872 28 18.933 28 19ZM23.25 12.7189V15.0046H25.625V12.7189M23.25 16.1474V18.4331H25.625V16.1474M23.25 19.576V20.9657L25.663 19.576M19.0985 12.7189V15.0046H22.0625V12.7189M19.0985 16.1474V18.4331H22.0625V16.1474M19.0985 19.576V21.1211L21.008 22.2549L22.0625 21.6514V19.576M16.125 12.7189V14.4286H17.8065C17.8445 14.4286 17.8793 14.4408 17.911 14.4651V12.7097M13.75 22.0354C14.2123 22.0354 14.6303 21.9562 15.004 21.7977C15.3713 21.6392 15.6848 21.4229 15.9445 21.1486C16.1978 20.8743 16.3878 20.5482 16.5145 20.1703C16.6475 19.7924 16.7172 19.384 16.7235 18.9451C16.7235 18.5246 16.657 18.1314 16.524 17.7657C16.3973 17.4061 16.2073 17.0922 15.954 16.824C15.707 16.5558 15.4062 16.3455 15.0515 16.1931C14.6905 16.0408 14.282 15.9646 13.826 15.9646C13.3383 15.9646 12.9045 16.0408 12.5245 16.1931C12.1508 16.3455 11.8342 16.5589 11.5745 16.8331C11.3148 17.1135 11.1185 17.4427 10.9855 17.8206C10.8525 18.2046 10.786 18.6221 10.786 19.0731C10.786 19.4998 10.8525 19.896 10.9855 20.2617C11.1248 20.6213 11.3212 20.9322 11.5745 21.1943C11.8278 21.4564 12.135 21.6636 12.496 21.816C12.8633 21.9623 13.2813 22.0354 13.75 22.0354ZM14.9375 25.8571H24.7415L18.5 22.1086V22.8126C18.5 23.0137 18.424 23.1935 18.272 23.352C18.1073 23.4983 17.9205 23.5714 17.7115 23.5714H14.9375M26.8125 25.7566V20.2434L22.1385 22.9406L26.8125 25.7566Z" fill="white"/>
</g>
<defs>
<filter id="filter0_i_200_453" x="0" y="0" width="39" height="43" filterUnits="userSpaceOnUse" color-interpolation-filters="sRGB">
<feFlood flood-opacity="0" result="BackgroundImageFix"/>
<feBlend mode="normal" in="SourceGraphic" in2="BackgroundImageFix" result="shape"/>
<feColorMatrix in="SourceAlpha" type="matrix" values="0 0 0 0 0 0 0 0 0 0 0 0 0 0 0 0 0 0 127 0" result="hardAlpha"/>
<feOffset dy="4"/>
<feGaussianBlur stdDeviation="5"/>
<feComposite in2="hardAlpha" operator="arithmetic" k2="-1" k3="1"/>
<feColorMatrix type="matrix" values="0 0 0 0 1 0 0 0 0 1 0 0 0 0 1 0 0 0 0.5 0"/>
<feBlend mode="normal" in2="shape" result="effect1_innerShadow_200_453"/>
</filter>
<linearGradient id="paint0_linear_200_453" x1="15.5" y1="11" x2="38.1971" y2="19.1668" gradientUnits="userSpaceOnUse">
<stop stop-color="#2EBEF7"/>
<stop offset="1" stop-color="#0176D6"/>
</linearGradient>
</defs>
</svg>
