<svg width="13" height="13" viewBox="0 0 13 13" fill="none" xmlns="http://www.w3.org/2000/svg">
<path d="M7.95291 0L9.92148 2.71453L11.2196 2.27896L12.4045 5.68978H13V13H0L0 5.68978H0.315714V5.68369L0.716857 5.68735L7.95291 0ZM4.88862 5.68978L11.0964 5.68978L10.4545 3.84213L9.51229 4.1388L4.88862 5.68978ZM3.92414 4.72545L8.69762 3.12512L7.70467 1.75445L3.92414 4.72545ZM2.47619 6.90815H1.2381V8.12652C1.56646 8.12652 1.88137 7.99816 2.11356 7.76967C2.34575 7.54118 2.47619 7.23129 2.47619 6.90815ZM8.66667 9.34489C8.66667 9.06489 8.61062 8.78764 8.50174 8.52896C8.39285 8.27027 8.23326 8.03522 8.03206 7.83724C7.83087 7.63925 7.59202 7.4822 7.32915 7.37505C7.06628 7.2679 6.78453 7.21275 6.5 7.21275C6.21547 7.21275 5.93372 7.2679 5.67085 7.37505C5.40798 7.4822 5.16913 7.63925 4.96794 7.83724C4.76674 8.03522 4.60715 8.27027 4.49826 8.52896C4.38938 8.78764 4.33333 9.06489 4.33333 9.34489C4.33333 9.91037 4.56161 10.4527 4.96794 10.8525C5.37426 11.2524 5.92536 11.477 6.5 11.477C7.07464 11.477 7.62574 11.2524 8.03206 10.8525C8.43839 10.4527 8.66667 9.91037 8.66667 9.34489ZM11.7619 11.7816V10.5633C11.4335 10.5633 11.1186 10.6916 10.8864 10.9201C10.6543 11.1486 10.5238 11.4585 10.5238 11.7816H11.7619ZM10.5238 6.90815C10.5238 7.23129 10.6543 7.54118 10.8864 7.76967C11.1186 7.99816 11.4335 8.12652 11.7619 8.12652V6.90815H10.5238ZM1.2381 11.7816H2.47619C2.47619 11.4585 2.34575 11.1486 2.11356 10.9201C1.88137 10.6916 1.56646 10.5633 1.2381 10.5633V11.7816Z" fill="#D2D2D2"/>
</svg>
