<svg width="13" height="12" viewBox="0 0 13 12" fill="none" xmlns="http://www.w3.org/2000/svg">
<path d="M5.33327 10.8111C4.82569 10.6955 4.33813 10.505 3.8866 10.2459M7.6666 0.571289C8.82636 0.836164 9.86183 1.48694 10.6035 2.41708C11.3451 3.34721 11.749 4.50159 11.749 5.69121C11.749 6.88083 11.3451 8.0352 10.6035 8.96534C9.86183 9.89547 8.82636 10.5462 7.6666 10.8111M2.17102 8.66212C1.85315 8.19962 1.6115 7.68914 1.45527 7.15012M1.32227 4.81621C1.4156 4.26204 1.59527 3.73704 1.84727 3.25579L1.94585 3.07787M3.52902 1.36229C4.07513 0.987135 4.68732 0.718744 5.33327 0.571289" stroke="#8C8C8C" stroke-linecap="round" stroke-linejoin="round"/>
</svg>
