<svg width="19" height="19" viewBox="0 0 19 19" fill="none" xmlns="http://www.w3.org/2000/svg">
<path d="M1.70616 14.0485C1.81099 14.9814 2.22901 15.8511 2.89196 16.5158C3.55491 17.1804 4.42362 17.6006 5.35622 17.7078C6.77488 17.8656 8.22934 18.0008 9.71429 18.0008C11.1992 18.0008 12.655 17.8656 14.0723 17.7065C15.005 17.5993 15.8737 17.1791 16.5366 16.5144C17.1996 15.8498 17.6176 14.98 17.7224 14.0472C17.8736 12.6378 18.0008 11.19 18.0008 9.71429C18.0008 8.23862 17.8736 6.79079 17.7224 5.38009C17.6176 4.44721 17.1996 3.57744 16.5366 2.91281C15.8737 2.24817 15.005 1.82794 14.0723 1.72075C12.6537 1.5643 11.1992 1.42773 9.71429 1.42773C8.22934 1.42773 6.77355 1.56297 5.35622 1.72207C4.42362 1.82927 3.55491 2.2495 2.89196 2.91413C2.22901 3.57877 1.81099 4.44854 1.70616 5.38141C1.55502 6.78946 1.42773 8.23729 1.42773 9.71429C1.42773 11.1913 1.55502 12.6378 1.70616 14.0485Z" stroke="#333333" stroke-linecap="round" stroke-linejoin="round"/>
<path d="M5.01473 12.9043C5.05981 13.542 5.57424 14.0578 6.21329 14.0763C6.85854 14.0949 7.50069 14.0706 8.13975 14.0034V12.3262C8.13975 12.13 8.13268 11.9364 8.11854 11.7455C8.09943 11.4362 7.96629 11.1451 7.74489 10.9283C7.52348 10.7116 7.22956 10.5847 6.91997 10.5721C6.68445 10.5658 6.44881 10.5658 6.21329 10.5721C5.90371 10.5847 5.60978 10.7116 5.38838 10.9283C5.16698 11.1451 5.03384 11.4362 5.01473 11.7455C5.00058 11.9364 4.99307 12.13 4.99219 12.3262C4.99219 12.6206 5.00147 12.7134 5.01473 12.9043Z" stroke="#333333" stroke-linecap="round" stroke-linejoin="round"/>
<path d="M8.13867 13.957C9.18121 14.1241 10.2437 14.1241 11.2862 13.957V11.2854C11.2862 10.7379 11.2597 10.2009 11.2279 9.67983C11.1921 9.05668 10.7281 8.52634 10.1049 8.49717C9.84343 8.48426 9.58148 8.48426 9.32 8.49717C8.69685 8.52767 8.23281 9.05668 8.19701 9.67983C8.16651 10.2009 8.13867 10.7379 8.13867 11.2841V13.957ZM11.2876 13.8974C11.9532 14.0635 12.6418 14.1186 13.3254 14.0604C13.9167 14.01 14.3291 13.4877 14.3529 12.8937C14.3927 11.9444 14.4338 10.9566 14.4338 9.94367C14.4338 8.93073 14.3914 7.94297 14.3529 6.99234C14.3291 6.39968 13.9167 5.87332 13.3254 5.82426C13.0162 5.79706 12.7052 5.79706 12.396 5.82426C11.8046 5.87332 11.3923 6.39968 11.3684 6.99234C11.3287 7.94297 11.2876 8.93073 11.2876 9.94367V13.8974Z" stroke="#333333" stroke-linecap="round" stroke-linejoin="round"/>
</svg>
