<svg width="21" height="21" viewBox="0 0 21 21" fill="none" xmlns="http://www.w3.org/2000/svg">
<path d="M1 11C1 6.7574 1 4.6361 2.3176 3.3176C3.637 2 5.7574 2 10 2C14.2426 2 16.3639 2 17.6815 3.3176C19 4.637 19 6.7574 19 11C19 15.2426 19 17.3639 17.6815 18.6815C16.3648 20 14.2426 20 10 20C5.7574 20 3.6361 20 2.3176 18.6815C1 17.3648 1 15.2426 1 11Z" stroke="#8C8C8C" stroke-width="1.3"/>
<rect x="5" y="11" width="1.78605" height="5" rx="0.4" fill="#8C8C8C"/>
<rect x="8.90723" y="6" width="1.78605" height="10" rx="0.4" fill="#8C8C8C"/>
<rect x="12.8135" y="9" width="1.78605" height="7" rx="0.4" fill="#8C8C8C"/>
</svg>
