<svg width="17" height="17" viewBox="0 0 17 17" fill="none" xmlns="http://www.w3.org/2000/svg">
<path fill-rule="evenodd" clip-rule="evenodd" d="M3.84532 0.516986C6.9392 0.174432 10.0614 0.174432 13.1553 0.516986C14.8683 0.708986 16.2503 2.05799 16.4513 3.77699C16.8179 6.91498 16.8179 10.085 16.4513 13.223C16.2503 14.942 14.8683 16.291 13.1553 16.483C10.0614 16.8255 6.9392 16.8255 3.84532 16.483C2.13232 16.291 0.750323 14.942 0.549323 13.223C0.182778 10.0853 0.182778 6.91565 0.549323 3.77799C0.650991 2.94286 1.0317 2.16653 1.62976 1.57483C2.22781 0.98313 3.00816 0.61073 3.84432 0.517986M8.50032 3.50699C8.69924 3.50699 8.89 3.586 9.03065 3.72666C9.17131 3.86731 9.25032 4.05807 9.25032 4.25699V7.74999H12.7433C12.9422 7.74999 13.133 7.829 13.2737 7.96966C13.4143 8.11031 13.4933 8.30107 13.4933 8.49999C13.4933 8.6989 13.4143 8.88966 13.2737 9.03032C13.133 9.17097 12.9422 9.24999 12.7433 9.24999H9.25032V12.743C9.25032 12.9419 9.17131 13.1327 9.03065 13.2733C8.89 13.414 8.69924 13.493 8.50032 13.493C8.30141 13.493 8.11065 13.414 7.96999 13.2733C7.82934 13.1327 7.75032 12.9419 7.75032 12.743V9.24999H4.25732C4.05841 9.24999 3.86765 9.17097 3.72699 9.03032C3.58634 8.88966 3.50732 8.6989 3.50732 8.49999C3.50732 8.30107 3.58634 8.11031 3.72699 7.96966C3.86765 7.829 4.05841 7.74999 4.25732 7.74999H7.75032V4.25699C7.75032 4.05807 7.82934 3.86731 7.96999 3.72666C8.11065 3.586 8.30141 3.50699 8.50032 3.50699Z" fill="white"/>
</svg>
