<svg width="15" height="12" viewBox="0 0 15 12" fill="none" xmlns="http://www.w3.org/2000/svg">
<path d="M6.83398 3.69157H14.1673M0.833984 5.0249L2.70532 2.92024C2.9555 2.63869 3.26249 2.41334 3.60606 2.25902C3.94964 2.1047 4.32201 2.02491 4.69865 2.0249H4.83398M0.833984 10.6916H4.50065L7.16732 8.69157C7.16732 8.69157 7.70732 8.3269 8.50065 7.69157C10.1673 6.35824 8.50065 4.24757 6.83398 5.35824C5.47665 6.2629 4.16732 7.0249 4.16732 7.0249" stroke="#8C8C8C" stroke-width="0.75" stroke-linecap="round" stroke-linejoin="round"/>
<path d="M4.83398 6.69157V2.35824C4.83398 2.00461 4.97446 1.66548 5.22451 1.41543C5.47456 1.16538 5.8137 1.0249 6.16732 1.0249H12.834C13.1876 1.0249 13.5267 1.16538 13.7768 1.41543C14.0268 1.66548 14.1673 2.00461 14.1673 2.35824V6.35824C14.1673 6.71186 14.0268 7.051 13.7768 7.30104C13.5267 7.55109 13.1876 7.69157 12.834 7.69157H8.50065" stroke="#8C8C8C" stroke-width="0.75"/>
</svg>
