<svg width="21" height="24" viewBox="0 0 21 24" fill="none" xmlns="http://www.w3.org/2000/svg">
<path fill-rule="evenodd" clip-rule="evenodd" d="M14.6509 7.1498H11.5509V9.4498H19.4509C19.7709 9.4498 20.0969 9.5598 20.3439 9.8068C20.5909 10.0538 20.7009 10.3788 20.7009 10.6998V15.3998C20.7009 15.7198 20.5909 16.0458 20.3439 16.2928C20.226 16.4083 20.0864 16.4993 19.9331 16.5606C19.7799 16.6219 19.616 16.6522 19.4509 16.6498H11.5509V19.2498H13.6509C13.7983 19.2497 13.9424 19.293 14.0653 19.3744C14.1882 19.4557 14.2844 19.5715 14.3419 19.7072C14.3994 19.8429 14.4157 19.9925 14.3887 20.1374C14.3616 20.2823 14.2925 20.416 14.1899 20.5218L11.0899 23.7218C11.0206 23.7934 10.9378 23.8504 10.8462 23.8897C10.7547 23.9289 10.6562 23.9495 10.5566 23.9502C10.457 23.9509 10.3582 23.9318 10.2661 23.894C10.1739 23.8562 10.0903 23.8003 10.0199 23.7298L6.81991 20.5298C6.7151 20.4249 6.64375 20.2912 6.6149 20.1457C6.58605 20.0002 6.60098 19.8494 6.65782 19.7124C6.71465 19.5754 6.81084 19.4583 6.93421 19.376C7.05757 19.2937 7.20259 19.2497 7.35091 19.2498H9.55091V16.6498H1.55091C1.23091 16.6498 0.904914 16.5398 0.657914 16.2928C0.542394 16.1749 0.45137 16.0353 0.390096 15.882C0.328822 15.7287 0.298511 15.5649 0.300914 15.3998V10.6998C0.300914 10.3798 0.410914 10.0538 0.657914 9.8068C0.904914 9.5598 1.23091 9.4498 1.55091 9.4498H9.55091V7.1498H6.45091C4.42091 7.1498 2.90091 5.4968 2.90091 3.5998C2.90091 1.5678 4.55391 0.0498047 6.45091 0.0498047H14.6509C16.6829 0.0498047 18.2009 1.7028 18.2009 3.5998C18.2009 5.5138 16.5649 7.1498 14.6509 7.1498Z" fill="url(#paint0_linear_1136_2482)"/>
<defs>
<linearGradient id="paint0_linear_1136_2482" x1="0.300781" y1="3.59752" x2="20.9046" y2="3.84542" gradientUnits="userSpaceOnUse">
<stop stop-color="#F6405B"/>
<stop offset="1" stop-color="#EF2B48"/>
</linearGradient>
</defs>
</svg>
