<svg width="16" height="16" viewBox="0 0 16 16" fill="none" xmlns="http://www.w3.org/2000/svg">
<path d="M5.97427 8.74539C5.97427 9.25454 5.77201 9.74284 5.41199 10.1029C5.05197 10.4629 4.56367 10.6651 4.05452 10.6651C3.54537 10.6651 3.05707 10.4629 2.69705 10.1029C2.33703 9.74284 2.13477 9.25454 2.13477 8.74539C2.13477 8.23624 2.33703 7.74795 2.69705 7.38792C3.05707 7.0279 3.54537 6.82564 4.05452 6.82564C4.56367 6.82564 5.05197 7.0279 5.41199 7.38792C5.77201 7.74795 5.97427 8.23624 5.97427 8.74539ZM4.90774 8.74539C4.90774 8.5191 4.81785 8.30208 4.65784 8.14207C4.49783 7.98206 4.28081 7.89217 4.05452 7.89217C3.82823 7.89217 3.61121 7.98206 3.4512 8.14207C3.29119 8.30208 3.2013 8.5191 3.2013 8.74539C3.2013 8.97168 3.29119 9.1887 3.4512 9.34871C3.61121 9.50872 3.82823 9.59862 4.05452 9.59862C4.28081 9.59862 4.49783 9.50872 4.65784 9.34871C4.81785 9.1887 4.90774 8.97168 4.90774 8.74539ZM2.13477 4.37262C2.13477 4.07826 2.37367 3.83936 2.66803 3.83936H11.4136C11.555 3.83936 11.6906 3.89554 11.7907 3.99555C11.8907 4.09555 11.9468 4.23119 11.9468 4.37262C11.9468 4.51405 11.8907 4.64969 11.7907 4.7497C11.6906 4.8497 11.555 4.90589 11.4136 4.90589H2.66803C2.37367 4.90589 2.13477 4.66698 2.13477 4.37262ZM7.36076 8.31878C7.21933 8.31878 7.08369 8.37496 6.98369 8.47497C6.88368 8.57498 6.8275 8.71062 6.8275 8.85205C6.8275 8.99348 6.88368 9.12912 6.98369 9.22912C7.08369 9.32913 7.21933 9.38531 7.36076 9.38531H11.4136C11.555 9.38531 11.6906 9.32913 11.7907 9.22912C11.8907 9.12912 11.9468 8.99348 11.9468 8.85205C11.9468 8.71062 11.8907 8.57498 11.7907 8.47497C11.6906 8.37496 11.555 8.31878 11.4136 8.31878H7.36076Z" fill="#333333"/>
<path d="M2.45302 0C1.80244 0 1.1785 0.258442 0.718473 0.718473C0.258442 1.1785 0 1.80244 0 2.45302V11.6252C0 12.2758 0.258442 12.8997 0.718473 13.3597C1.1785 13.8198 1.80244 14.0782 2.45302 14.0782H11.6252C12.2758 14.0782 12.8997 13.8198 13.3597 13.3597C13.8198 12.8997 14.0782 12.2758 14.0782 11.6252V2.45302C14.0782 1.80244 13.8198 1.1785 13.3597 0.718473C12.8997 0.258442 12.2758 0 11.6252 0H2.45302ZM1.06653 2.45302C1.06653 2.0853 1.21261 1.73264 1.47262 1.47262C1.73264 1.21261 2.0853 1.06653 2.45302 1.06653H11.6252C11.9929 1.06653 12.3456 1.21261 12.6056 1.47262C12.8656 1.73264 13.0117 2.0853 13.0117 2.45302V11.6252C13.0117 11.8197 12.9716 12.0049 12.899 12.1734C12.7923 12.4226 12.6147 12.635 12.3882 12.7841C12.1617 12.9331 11.8963 13.0123 11.6252 13.0117H2.45302C2.17948 13.0123 1.9119 12.9318 1.68415 12.7803C1.4564 12.6288 1.27872 12.4131 1.17361 12.1606C1.10223 11.9911 1.06581 11.809 1.06653 11.6252V2.45302Z" fill="#333333"/>
<path d="M4.37474 15.998C3.97569 15.9984 3.58259 15.9013 3.22963 15.7151C2.87668 15.5289 2.57458 15.2593 2.34961 14.9297C2.38459 14.9309 2.41972 14.9314 2.45498 14.9314H11.6271C12.504 14.9314 13.345 14.5831 13.965 13.9631C14.585 13.343 14.9334 12.5021 14.9334 11.6252V2.45303C14.9334 2.41805 14.9328 2.38292 14.9317 2.34766C15.2613 2.57262 15.5309 2.87473 15.7171 3.22768C15.9032 3.58063 16.0003 3.97374 15.9999 4.37278V11.6252C15.9999 14.0398 14.0418 15.998 11.6271 15.998H4.37474Z" fill="#333333"/>
</svg>
