<svg width="21" height="20" viewBox="0 0 21 20" fill="none" xmlns="http://www.w3.org/2000/svg">
<path d="M1.5 10C1.5 5.7574 1.5 3.6361 2.8176 2.3176C4.137 1 6.2574 1 10.5 1C14.7426 1 16.8639 1 18.1815 2.3176C19.5 3.637 19.5 5.7574 19.5 10C19.5 14.2426 19.5 16.3639 18.1815 17.6815C16.8648 19 14.7426 19 10.5 19C6.2574 19 4.1361 19 2.8176 17.6815C1.5 16.3648 1.5 14.2426 1.5 10Z" stroke="#8C8C8C" stroke-width="1.3"/>
<path d="M6 11.8002L7.6173 9.8598C8.2581 9.0903 8.5785 8.706 8.9997 8.706C9.4218 8.706 9.7422 9.0903 10.383 9.8598L10.617 10.1406C11.2578 10.9101 11.5782 11.2944 12.0003 11.2944C12.4224 11.2944 12.7419 10.9101 13.3827 10.1406L15 8.2002" stroke="#8C8C8C" stroke-width="1.3" stroke-linecap="round"/>
</svg>
