<svg width="18" height="18" viewBox="0 0 18 18" fill="none" xmlns="http://www.w3.org/2000/svg">
<path d="M1 9C1 5.2288 1 3.3432 2.1712 2.1712C3.344 1 5.2288 1 9 1C12.7712 1 14.6568 1 15.828 2.1712C17 3.344 17 5.2288 17 9C17 12.7712 17 14.6568 15.828 15.828C14.6576 17 12.7712 17 9 17C5.2288 17 3.3432 17 2.1712 15.828C1 14.6576 1 12.7712 1 9Z" stroke="url(#paint0_linear_2227_4611)" stroke-width="1.2"/>
<path d="M5 10.6L6.4376 8.87519C7.0072 8.19119 7.292 7.84959 7.6664 7.84959C8.0416 7.84959 8.3264 8.19119 8.896 8.87519L9.104 9.12479C9.6736 9.80879 9.9584 10.1504 10.3336 10.1504C10.7088 10.1504 10.9928 9.80879 11.5624 9.12479L13 7.39999" stroke="url(#paint1_linear_2227_4611)" stroke-width="1.2" stroke-linecap="round"/>
<defs>
<linearGradient id="paint0_linear_2227_4611" x1="1" y1="3.375" x2="17.1589" y2="3.60278" gradientUnits="userSpaceOnUse">
<stop stop-color="#F6405B"/>
<stop offset="1" stop-color="#EF2B48"/>
</linearGradient>
<linearGradient id="paint1_linear_2227_4611" x1="5" y1="7.87499" x2="13.071" y2="8.15942" gradientUnits="userSpaceOnUse">
<stop stop-color="#F6405B"/>
<stop offset="1" stop-color="#EF2B48"/>
</linearGradient>
</defs>
</svg>
