<svg width="8" height="9" viewBox="0 0 8 9" fill="none" xmlns="http://www.w3.org/2000/svg">
<path d="M4.03798 8.33594C2.94476 8.33594 2.01878 7.95657 1.26006 7.19784C0.501327 6.43912 0.121964 5.51314 0.121964 4.41992C0.121964 3.3267 0.501327 2.40073 1.26006 1.642C2.01878 0.88327 2.94476 0.503906 4.03798 0.503906C4.60091 0.503906 5.13936 0.620081 5.65334 0.852432C6.16731 1.08478 6.60786 1.41732 6.97499 1.85004V0.503906H7.95399V3.93042H4.52748V2.95142H6.58339C6.32232 2.49455 5.96547 2.13558 5.51285 1.87451C5.06022 1.61344 4.5686 1.48291 4.03798 1.48291C3.22214 1.48291 2.52868 1.76845 1.9576 2.33954C1.38651 2.91062 1.10097 3.60409 1.10097 4.41992C1.10097 5.23576 1.38651 5.92922 1.9576 6.50031C2.52868 7.07139 3.22214 7.35693 4.03798 7.35693C4.66617 7.35693 5.23318 7.17745 5.739 6.81848C6.24482 6.45951 6.59971 5.98633 6.80367 5.39893H7.83162C7.60319 6.26371 7.13816 6.96941 6.43654 7.51602C5.73492 8.06263 4.9354 8.33594 4.03798 8.33594Z" fill="#F6405B"/>
</svg>
