<svg width="23" height="24" viewBox="0 0 23 24" fill="none" xmlns="http://www.w3.org/2000/svg">
<path d="M17.6734 9.85115C18.3922 9.1324 18.9672 8.70115 19.3984 8.2699C21.6984 5.9699 23.9984 2.37615 22.5609 0.938652C21.1234 -0.498848 17.6734 1.80115 15.3734 4.10115C14.9422 4.5324 14.5109 5.1074 13.7922 5.82615L3.72969 1.22615C2.72344 0.794902 1.57344 0.938652 0.854688 1.6574L-0.0078125 2.37615L9.47969 10.5699C7.61094 12.8699 5.59844 15.0262 4.59219 16.3199L3.01094 15.4574C2.29219 15.0262 1.28594 15.0262 0.710938 15.7449L0.279688 16.1762L4.30469 19.1949L7.17969 23.2199L7.61094 22.7887C8.18594 22.2137 8.32969 21.2074 7.89844 20.4887L7.17969 18.9074C8.47344 17.9012 10.6297 15.8887 12.9297 14.0199L21.1234 23.5074L21.8422 22.7887C22.5609 22.0699 22.7047 20.9199 22.2734 19.9137L17.6734 9.85115Z" fill="url(#paint0_linear_1123_1496)"/>
<defs>
<linearGradient id="paint0_linear_1123_1496" x1="-0.0078125" y1="3.90887" x2="23.2355" y2="4.23652" gradientUnits="userSpaceOnUse">
<stop stop-color="#F6405B"/>
<stop offset="1" stop-color="#EF2B48"/>
</linearGradient>
</defs>
</svg>
