<svg width="19" height="19" viewBox="0 0 19 19" fill="none" xmlns="http://www.w3.org/2000/svg">
<path d="M9.5 0C13.9783 0 16.2176 -0.000161875 17.6084 1.39062C19.0001 2.78332 19 5.0217 19 9.5C19 13.9783 19.0001 16.2176 17.6084 17.6084C16.2185 19.0001 13.9783 19 9.5 19C5.0217 19 2.78238 19.0001 1.39062 17.6084C-0.000161815 16.2185 0 13.9783 0 9.5C0 5.0217 -0.00017497 2.78238 1.39062 1.39062C2.78332 -0.00017497 5.0217 0 9.5 0ZM4.98633 10C4.44175 10 4 10.4417 4 10.9863V14.0137C4 14.5583 4.44175 15 4.98633 15C5.53078 14.9999 5.97168 14.5582 5.97168 14.0137V10.9863C5.97168 10.4418 5.53078 10.0001 4.98633 10ZM9.30078 5C8.7562 5 8.31445 5.44175 8.31445 5.98633V14.0137C8.31445 14.5583 8.7562 15 9.30078 15C9.84514 14.9997 10.2861 14.5581 10.2861 14.0137V5.98633C10.2861 5.44191 9.84514 5.00026 9.30078 5ZM13.6133 8C13.0687 8 12.627 8.44175 12.627 8.98633V14.0137C12.627 14.5583 13.0687 15 13.6133 15C14.1577 14.9999 14.5986 14.5582 14.5986 14.0137V8.98633C14.5986 8.44184 14.1577 8.00015 13.6133 8Z" fill="url(#paint0_linear_3116_1809)"/>
<defs>
<linearGradient id="paint0_linear_3116_1809" x1="-1.45604e-09" y1="2.82031" x2="19.1887" y2="3.0908" gradientUnits="userSpaceOnUse">
<stop stop-color="#F6405B"/>
<stop offset="1" stop-color="#EF2B48"/>
</linearGradient>
</defs>
</svg>
