<svg width="22" height="22" viewBox="0 0 22 22" fill="none" xmlns="http://www.w3.org/2000/svg">
<path d="M5 7.40002C5 4.38301 5 2.875 5.946 1.937C6.89301 1 8.41601 1 11.462 1H12.538C15.585 1 17.108 1 18.054 1.937C19 2.874 19 4.38301 19 7.40002V10.6C19 13.617 19 15.125 18.054 16.063C17.107 17 15.584 17 12.538 17H11.462C8.41601 17 6.89201 17 5.946 16.063C5 15.126 5 13.617 5 10.6V7.40002Z" fill="url(#paint0_linear_1212_5004)" stroke="white" stroke-width="1.3" stroke-linecap="round" stroke-linejoin="round"/>
<path d="M9 7H13" stroke="white" stroke-width="1.3"/>
<path d="M9 12H14.5" stroke="white" stroke-width="1.3"/>
<path d="M1 11.4C1 8.38301 1 6.875 1.946 5.937C2.89301 5 4.41601 5 7.46202 5H8.53802C11.585 5 13.108 5 14.054 5.937C15 6.874 15 8.38301 15 11.4V14.6C15 17.617 15 19.125 14.054 20.063C13.107 21 11.584 21 8.53802 21H7.46202C4.41601 21 2.89201 21 1.946 20.063C1 19.126 1 17.617 1 14.6V11.4Z" fill="url(#paint1_linear_1212_5004)" stroke="white" stroke-width="1.3" stroke-linecap="round" stroke-linejoin="round"/>
<path d="M5 12H9" stroke="white" stroke-width="1.3" stroke-linecap="round" stroke-linejoin="round"/>
<path d="M5 16H10.5" stroke="white" stroke-width="1.3" stroke-linecap="round"/>
<defs>
<linearGradient id="paint0_linear_1212_5004" x1="5" y1="3.37501" x2="19.1397" y2="3.54941" gradientUnits="userSpaceOnUse">
<stop stop-color="#F6405B"/>
<stop offset="1" stop-color="#EF2B48"/>
</linearGradient>
<linearGradient id="paint1_linear_1212_5004" x1="1" y1="7.37501" x2="15.1397" y2="7.54941" gradientUnits="userSpaceOnUse">
<stop stop-color="#F6405B"/>
<stop offset="1" stop-color="#EF2B48"/>
</linearGradient>
</defs>
</svg>
