<svg width="19" height="24" viewBox="0 0 19 24" fill="none" xmlns="http://www.w3.org/2000/svg">
<path d="M16.6214 2.604C17.317 2.85166 17.9193 3.31134 18.3454 3.91962C18.7714 4.52789 19.0001 5.25478 19 6V20.4C19 21.3548 18.6247 22.2705 17.9566 22.9456C17.2885 23.6207 16.3823 24 15.4375 24H3.5625C2.61767 24 1.71153 23.6207 1.04343 22.9456C0.375334 22.2705 5.23154e-08 21.3548 5.23154e-08 20.4V6C-0.000126295 5.25478 0.228609 4.52789 0.654646 3.91962C1.08068 3.31134 1.68302 2.85166 2.37856 2.604C2.43062 3.84073 2.95347 5.00932 3.83793 5.86574C4.72238 6.72216 5.90005 7.20019 7.125 7.2H11.875C13.052 7.20011 14.1871 6.75862 15.0603 5.96113C15.9335 5.16364 16.4827 4.06693 16.6012 2.8836L16.6214 2.604ZM5.94938 15.6H5.9375C5.63483 15.6003 5.34371 15.7175 5.12362 15.9274C4.90354 16.1374 4.7711 16.4243 4.75336 16.7297C4.73562 17.035 4.83393 17.3357 5.02819 17.5702C5.22245 17.8047 5.49801 17.9555 5.79856 17.9916L5.94938 18C6.26432 18 6.56636 17.8736 6.78906 17.6485C7.01176 17.4235 7.13688 17.1183 7.13688 16.8C7.13688 16.4817 7.01176 16.1765 6.78906 15.9515C6.56636 15.7264 6.26432 15.6 5.94938 15.6ZM13.0625 15.6H10.6875C10.3726 15.6 10.0705 15.7264 9.84781 15.9515C9.62511 16.1765 9.5 16.4817 9.5 16.8C9.5 17.1183 9.62511 17.4235 9.84781 17.6485C10.0705 17.8736 10.3726 18 10.6875 18H13.0625C13.3774 18 13.6795 17.8736 13.9022 17.6485C14.1249 17.4235 14.25 17.1183 14.25 16.8C14.25 16.4817 14.1249 16.1765 13.9022 15.9515C13.6795 15.7264 13.3774 15.6 13.0625 15.6ZM5.94938 10.8H5.9375C5.63483 10.8003 5.34371 10.9175 5.12362 11.1274C4.90354 11.3374 4.7711 11.6243 4.75336 11.9297C4.73562 12.235 4.83393 12.5357 5.02819 12.7702C5.22245 13.0047 5.49801 13.1555 5.79856 13.1916L5.94938 13.2C6.26432 13.2 6.56636 13.0736 6.78906 12.8485C7.01176 12.6235 7.13688 12.3183 7.13688 12C7.13688 11.6817 7.01176 11.3765 6.78906 11.1515C6.56636 10.9264 6.26432 10.8 5.94938 10.8ZM13.0625 10.8H10.6875C10.3726 10.8 10.0705 10.9264 9.84781 11.1515C9.62511 11.3765 9.5 11.6817 9.5 12C9.5 12.3183 9.62511 12.6235 9.84781 12.8485C10.0705 13.0736 10.3726 13.2 10.6875 13.2H13.0625C13.3774 13.2 13.6795 13.0736 13.9022 12.8485C14.1249 12.6235 14.25 12.3183 14.25 12C14.25 11.6817 14.1249 11.3765 13.9022 11.1515C13.6795 10.9264 13.3774 10.8 13.0625 10.8ZM11.875 0C12.5049 0 13.109 0.252856 13.5544 0.702944C13.9998 1.15303 14.25 1.76348 14.25 2.4C14.25 3.03652 13.9998 3.64697 13.5544 4.09706C13.109 4.54714 12.5049 4.8 11.875 4.8H7.125C6.49511 4.8 5.89102 4.54714 5.44562 4.09706C5.00022 3.64697 4.75 3.03652 4.75 2.4C4.75 1.76348 5.00022 1.15303 5.44562 0.702944C5.89102 0.252856 6.49511 0 7.125 0H11.875Z" fill="url(#paint0_linear_1123_1605)"/>
<defs>
<linearGradient id="paint0_linear_1123_1605" x1="-1.45604e-09" y1="3.5625" x2="19.1901" y2="3.77665" gradientUnits="userSpaceOnUse">
<stop stop-color="#F6405B"/>
<stop offset="1" stop-color="#EF2B48"/>
</linearGradient>
</defs>
</svg>
