<svg width="35" height="34" viewBox="0 0 35 34" fill="none" xmlns="http://www.w3.org/2000/svg">
<rect x="0.5" y="0.00292969" width="34" height="34" rx="17" fill="#007AFF"/>
<path d="M14.4 21.3221L13.02 22.8055C12.83 23.0097 12.6124 23.0555 12.3672 22.9429C12.122 22.8302 11.9996 22.6286 12 22.3379V12.2928C12 11.9381 12.1176 11.6345 12.3528 11.3822C12.588 11.1298 12.8704 11.0034 13.2 11.0029H22.8C23.13 11.0029 23.4126 11.1293 23.6478 11.3822C23.883 11.635 24.0004 11.9385 24 12.2928V20.0322C24 20.3869 23.8826 20.6907 23.6478 20.9435C23.413 21.1963 23.1304 21.3225 22.8 21.3221H14.4ZM15.6 16.8075C15.77 16.8075 15.9126 16.7455 16.0278 16.6217C16.143 16.4979 16.2004 16.3448 16.2 16.1625C16.1996 15.9802 16.142 15.8271 16.0272 15.7033C15.9124 15.5795 15.77 15.5176 15.6 15.5176C15.43 15.5176 15.2876 15.5795 15.1728 15.7033C15.058 15.8271 15.0004 15.9802 15 16.1625C14.9996 16.3448 15.0572 16.4981 15.1728 16.6224C15.2884 16.7466 15.4308 16.8083 15.6 16.8075ZM18 16.8075C18.17 16.8075 18.3126 16.7455 18.4278 16.6217C18.543 16.4979 18.6004 16.3448 18.6 16.1625C18.5996 15.9802 18.542 15.8271 18.4272 15.7033C18.3124 15.5795 18.17 15.5176 18 15.5176C17.83 15.5176 17.6876 15.5795 17.5728 15.7033C17.458 15.8271 17.4004 15.9802 17.4 16.1625C17.3996 16.3448 17.4572 16.4981 17.5728 16.6224C17.6884 16.7466 17.8308 16.8083 18 16.8075ZM20.4 16.8075C20.57 16.8075 20.7126 16.7455 20.8278 16.6217C20.943 16.4979 21.0004 16.3448 21 16.1625C20.9996 15.9802 20.942 15.8271 20.8272 15.7033C20.7124 15.5795 20.57 15.5176 20.4 15.5176C20.23 15.5176 20.0876 15.5795 19.9728 15.7033C19.858 15.8271 19.8004 15.9802 19.8 16.1625C19.7996 16.3448 19.8572 16.4981 19.9728 16.6224C20.0884 16.7466 20.2308 16.8083 20.4 16.8075Z" fill="white"/>
</svg>
