<svg width="26" height="27" viewBox="0 0 26 27" fill="none" xmlns="http://www.w3.org/2000/svg">
<path d="M6.72205 3.80627H4.11102C3.41854 3.80627 2.75441 4.08136 2.26475 4.57103C1.77509 5.06069 1.5 5.72481 1.5 6.4173V22.0834C1.5 22.7759 1.77509 23.4401 2.26475 23.9297C2.75441 24.4194 3.41854 24.6945 4.11102 24.6945H19.7776" fill="#F6405B"/>
<path d="M6.72205 3.80627H4.11102C3.41854 3.80627 2.75441 4.08136 2.26475 4.57103C1.77509 5.06069 1.5 5.72481 1.5 6.4173V22.0834C1.5 22.7759 1.77509 23.4401 2.26475 23.9297C2.75441 24.4194 3.41854 24.6945 4.11102 24.6945H19.7776" stroke="white" stroke-width="1.3" stroke-linecap="round" stroke-linejoin="round"/>
<path d="M19.7778 24.9958V6.4173C19.7778 5.72481 19.5028 5.06069 19.0131 4.57103C18.5234 4.08136 17.8593 3.80627 17.1668 3.80627H6.52148" fill="#F6405B"/>
<path d="M19.7778 24.9958V6.4173C19.7778 5.72481 19.5028 5.06069 19.0131 4.57103C18.5234 4.08136 17.8593 3.80627 17.1668 3.80627H6.52148" stroke="white" stroke-width="1.3" stroke-linecap="round" stroke-linejoin="round"/>
<path d="M11.9447 1.19531H9.33368C7.89165 1.19531 6.72266 2.36431 6.72266 3.80634C6.72266 5.24836 7.89165 6.41736 9.33368 6.41736H11.9447C13.3867 6.41736 14.5557 5.24836 14.5557 3.80634C14.5557 2.36431 13.3867 1.19531 11.9447 1.19531Z" fill="#F6405B" stroke="white" stroke-width="1.3" stroke-linecap="round" stroke-linejoin="round"/>
<path d="M19.7777 26C22.6618 26 24.9998 23.662 24.9998 20.778C24.9998 17.8939 22.6618 15.5559 19.7777 15.5559C16.8937 15.5559 14.5557 17.8939 14.5557 20.778C14.5557 23.662 16.8937 26 19.7777 26Z" fill="#F6405B" stroke="white" stroke-width="1.3" stroke-linecap="round" stroke-linejoin="round"/>
<path d="M6.72266 11.6393H11.9447" stroke="white" stroke-width="1.3" stroke-linecap="round" stroke-linejoin="round"/>
<path d="M6.72266 16.8615H10.6392" stroke="white" stroke-width="1.3" stroke-linecap="round" stroke-linejoin="round"/>
</svg>
