<svg width="20" height="22" viewBox="0 0 20 22" fill="none" xmlns="http://www.w3.org/2000/svg">
<path d="M12 2V2.5C12 3.88071 10.8807 5 9.5 5H7C5.61929 5 4.5 3.88071 4.5 2.5V2H12ZM16 18C16 19.4344 14.9929 20.6315 13.6475 20.9277C12.314 19.9271 11.6996 18.1544 12.248 16.4824C12.7956 14.8134 14.3363 13.7495 16 13.7295V18ZM4.68555 13.3496C4.32656 13.3496 4.03516 13.641 4.03516 14C4.03516 14.359 4.32656 14.6504 4.68555 14.6504H8.18555C8.54453 14.6504 8.83594 14.359 8.83594 14C8.83594 13.641 8.54453 13.3496 8.18555 13.3496H4.68555ZM4.68555 8.68262C4.32656 8.68262 4.03516 8.97402 4.03516 9.33301C4.03516 9.69199 4.32656 9.9834 4.68555 9.9834H9.35254C9.71137 9.98322 10.002 9.69188 10.002 9.33301C10.002 8.97413 9.71137 8.68279 9.35254 8.68262H4.68555ZM13 2C14.6569 2 16 3.34315 16 5V12.7295C13.9159 12.7494 11.9838 14.0797 11.2979 16.1699C10.7305 17.8993 11.158 19.7159 12.2666 21H3C1.34315 21 0 19.6569 0 18V5C0 3.34315 1.34315 2 3 2H3.5V2.5C3.5 4.433 5.067 6 7 6H9.5C11.433 6 13 4.433 13 2.5V2Z" fill="url(#paint0_linear_3116_1821)"/>
<path d="M16 21.7002C18.2091 21.7002 20 19.9093 20 17.7002C20 15.4911 18.2091 13.7002 16 13.7002C13.7909 13.7002 12 15.4911 12 17.7002C12 19.9093 13.7909 21.7002 16 21.7002Z" fill="url(#paint1_linear_3116_1821)"/>
<path d="M9.51888 0H6.85221C5.37945 0 4.18555 1.11929 4.18555 2.5C4.18555 3.88071 5.37945 5 6.85221 5H9.51888C10.9916 5 12.1855 3.88071 12.1855 2.5C12.1855 1.11929 10.9916 0 9.51888 0Z" fill="url(#paint2_linear_3116_1821)"/>
<defs>
<linearGradient id="paint0_linear_3116_1821" x1="-1.22614e-09" y1="4.82031" x2="16.1598" y2="5.01214" gradientUnits="userSpaceOnUse">
<stop stop-color="#F6405B"/>
<stop offset="1" stop-color="#EF2B48"/>
</linearGradient>
<linearGradient id="paint1_linear_3116_1821" x1="12" y1="14.8877" x2="20.0794" y2="15.0016" gradientUnits="userSpaceOnUse">
<stop stop-color="#F6405B"/>
<stop offset="1" stop-color="#EF2B48"/>
</linearGradient>
<linearGradient id="paint2_linear_3116_1821" x1="4.18555" y1="0.742188" x2="12.2625" y2="0.924356" gradientUnits="userSpaceOnUse">
<stop stop-color="#F6405B"/>
<stop offset="1" stop-color="#EF2B48"/>
</linearGradient>
</defs>
</svg>
