<svg width="26" height="26" viewBox="0 0 26 26" fill="none" xmlns="http://www.w3.org/2000/svg">
<g clip-path="url(#clip0_2488_4701)">
<path d="M8.66732 5.4165H6.50065C5.92602 5.4165 5.37492 5.64478 4.96859 6.05111C4.56226 6.45743 4.33398 7.00853 4.33398 7.58317V20.5832C4.33398 21.1578 4.56226 21.7089 4.96859 22.1152C5.37492 22.5216 5.92602 22.7498 6.50065 22.7498H12.6724" stroke="#8C8C8C" stroke-width="1.3" stroke-linecap="round" stroke-linejoin="round"/>
<path d="M19.5 15.1665V19.4998H23.8333" stroke="#8C8C8C" stroke-width="1.3" stroke-linecap="round" stroke-linejoin="round"/>
<path d="M19.4993 11.9165V7.58317C19.4993 7.00853 19.2711 6.45743 18.8647 6.05111C18.4584 5.64478 17.9073 5.4165 17.3327 5.4165H15.166" stroke="#8C8C8C" stroke-width="1.3" stroke-linecap="round" stroke-linejoin="round"/>
<path d="M12.9993 3.25H10.8327C9.63607 3.25 8.66602 4.22005 8.66602 5.41667C8.66602 6.61328 9.63607 7.58333 10.8327 7.58333H12.9993C14.196 7.58333 15.166 6.61328 15.166 5.41667C15.166 4.22005 14.196 3.25 12.9993 3.25Z" stroke="#8C8C8C" stroke-width="1.3" stroke-linecap="round" stroke-linejoin="round"/>
<path d="M19.4993 23.8332C21.8926 23.8332 23.8327 21.8931 23.8327 19.4998C23.8327 17.1066 21.8926 15.1665 19.4993 15.1665C17.1061 15.1665 15.166 17.1066 15.166 19.4998C15.166 21.8931 17.1061 23.8332 19.4993 23.8332Z" stroke="#8C8C8C" stroke-width="1.3" stroke-linecap="round" stroke-linejoin="round"/>
<path d="M8.66602 11.9165H12.9993" stroke="#8C8C8C" stroke-width="1.3" stroke-linecap="round" stroke-linejoin="round"/>
<path d="M8.66602 16.25H11.916" stroke="#8C8C8C" stroke-width="1.3" stroke-linecap="round" stroke-linejoin="round"/>
</g>
<defs>
<clipPath id="clip0_2488_4701">
<rect width="26" height="26" fill="white"/>
</clipPath>
</defs>
</svg>
