<svg width="35" height="34" viewBox="0 0 35 34" fill="none" xmlns="http://www.w3.org/2000/svg">
<rect x="0.5" y="0.00292969" width="34" height="34" rx="17" fill="#AF52DE"/>
<path d="M18 24.0029C17.5077 24.0029 17.0917 23.8039 16.7518 23.4059C16.4119 23.0078 16.242 22.5206 16.242 21.9441C16.242 21.3676 16.4119 20.8804 16.7518 20.4823C17.0917 20.0843 17.5077 19.8853 18 19.8853C18.4923 19.8853 18.9083 20.0843 19.2482 20.4823C19.5881 20.8804 19.758 21.3676 19.758 21.9441C19.758 22.5206 19.5881 23.0078 19.2482 23.4059C18.9083 23.8039 18.4923 24.0029 18 24.0029ZM18 14.9441C18.879 14.9441 19.7142 15.1088 20.5056 15.4382C21.2969 15.7676 22.0147 16.2206 22.6588 16.797C22.8932 17.0029 23.0135 17.2741 23.0196 17.6107C23.0256 17.9472 22.923 18.2388 22.7115 18.4853C22.5123 18.7186 22.2662 18.8389 21.9732 18.846C21.6802 18.8531 21.4165 18.7603 21.182 18.5676C20.7367 18.2108 20.2444 17.9294 19.7053 17.7235C19.1662 17.5176 18.5977 17.4147 18 17.4147C17.4023 17.4147 16.8338 17.5176 16.2947 17.7235C15.7556 17.9294 15.2633 18.2108 14.818 18.5676C14.5835 18.7598 14.3198 18.849 14.0268 18.8353C13.7338 18.8216 13.4877 18.698 13.2885 18.4647C13.0892 18.2176 12.9896 17.9261 12.9896 17.5901C12.9896 17.2541 13.1068 16.9829 13.3412 16.7765C13.9858 16.2 14.7038 15.7503 15.4951 15.4275C16.2865 15.1047 17.1214 14.9436 18 14.9441ZM18 10.0029C19.465 10.0029 20.8452 10.2843 22.1405 10.847C23.4359 11.4098 24.599 12.2059 25.6299 13.2353C25.8643 13.4686 25.9874 13.7569 25.9991 14.1C26.0108 14.4431 25.9112 14.7382 25.7002 14.9853C25.501 15.2186 25.2548 15.3389 24.9618 15.346C24.6688 15.3531 24.4051 15.2466 24.1707 15.0265C23.3269 14.2167 22.3806 13.5889 21.3318 13.143C20.2831 12.6972 19.1725 12.4741 18 12.4735C16.8275 12.473 15.7171 12.6961 14.6689 13.143C13.6206 13.5899 12.6741 14.2178 11.8293 15.0265C11.5949 15.2461 11.3312 15.3526 11.0382 15.346C10.7452 15.3394 10.499 15.2192 10.2998 14.9853C10.0888 14.7382 9.98921 14.4431 10.0009 14.1C10.0126 13.7569 10.1357 13.4686 10.3701 13.2353C11.4015 12.2059 12.5648 11.4098 13.8602 10.847C15.1555 10.2843 16.5354 10.0029 18 10.0029Z" fill="white"/>
</svg>
